v  -7.6875 -23.3591 -5.2660
v  -7.8781 -23.5259 -5.4252
v  -7.9587 -23.7292 -5.1651
v  -7.7698 -23.5674 -5.0034
v  -4.9608 -21.5151 -5.0019
v  -4.7517 -21.4397 -5.3299
v  -1.6584 -20.8763 -1.0425
v  -1.5362 -20.6680 -1.3571
v  -1.7980 -20.7647 -1.5625
v  -1.9240 -20.9710 -1.2528
v  -8.9583 -24.8134 -6.5714
v  -8.8774 -24.6862 -6.8048
v  -8.9805 -24.8815 -6.9453
v  -9.0552 -24.9962 -6.7260
v  -7.1363 -22.7934 -6.4868
v  -7.3046 -22.8923 -6.1649
v  -7.0991 -22.7212 -6.0131
v  -6.9270 -22.6197 -6.3372
v  -4.2672 -22.5126 -8.2858
v  -4.5361 -22.3443 -8.0312
v  -3.2664 -23.4725 -9.0560
v  12.4485 11.9762 1.7949
v  13.0745 11.8717 1.7856
v  12.4550 12.1997 2.0908
v  13.0804 12.0919 2.0788
v  -3.0537 -23.7757 -9.1742
v  -3.3336 -23.9227 -9.3226
v  -3.5445 -23.6229 -9.2070
v  3.0778 -20.9440 -4.9468
v  2.8069 -20.6839 -4.7988
v  -4.5392 -22.6716 -8.4475
v  -4.8063 -22.5045 -8.1953
v  -7.0366 -24.8156 -9.5758
v  -7.2156 -25.0482 -9.6270
v  -7.4287 -24.9466 -9.4466
v  -7.2547 -24.7025 -9.3868
v  -4.5793 -21.3732 -4.7509
v  -4.3689 -21.2992 -5.0770
v  3.0917 -20.5092 -4.6415
v  3.3684 -20.7685 -4.7904
v  22.3279 9.1718 2.2298
v  21.7150 9.3360 2.2417
v  21.7167 9.5383 2.4349
v  22.3296 9.3766 2.4167
v  22.3155 8.3403 1.5633
v  17.4281 12.0860 4.2098
v  17.4455 11.9816 3.8945
v  1.0165 -19.0804 -0.6824
v  1.2117 -18.9833 -1.0775
v  0.9479 -19.1682 -1.2944
v  0.7522 -19.2622 -0.9075
v  -38.2997 1.1256 -1.4888
v  -38.3062 1.0619 -1.6373
v  -38.3758 1.3331 -1.5568
v  -38.3847 1.2741 -1.7088
v  -18.5213 2.8250 10.2964
v  -18.9068 2.8071 10.2088
v  -18.8999 2.4513 10.0880
v  -18.5181 2.4677 10.1732
v  -19.7294 6.5525 8.5774
v  -19.3340 6.5810 8.6700
v  -18.1453 6.6639 8.8763
v  -17.0715 4.6498 2.6389
v  -17.4004 4.6569 2.6159
v  -17.4098 5.0055 2.7215
v  -17.0800 4.9990 2.7428
v  -17.2459 1.7643 3.0370
v  -17.2015 2.0976 2.8714
v  -31.5889 2.0542 5.1422
v  -31.6447 2.3888 5.1850
v  -31.3571 2.0841 5.3259
v  -31.4110 2.4209 5.3694
v  -21.8516 6.9250 4.5307
v  -24.4491 6.1786 6.6411
v  -24.0467 6.2056 6.8173
v  -28.5984 4.7965 -0.9362
v  -28.7688 4.7715 -1.0593
v  -28.8881 5.0166 -0.8897
v  -28.7153 5.0414 -0.7666
v  -28.9957 3.5204 -1.8617
v  -29.0592 3.8326 -1.8105
v  -27.4948 2.4340 -0.8315
v  -27.6768 2.4129 -0.9284
v  -27.6861 2.7369 -0.9791
v  -27.5047 2.7587 -0.8828
v  -20.3552 7.0542 5.2440
v  -20.7131 7.0241 5.0844
v  -20.8324 7.0488 5.4552
v  -20.4702 7.0789 5.6163
v  -21.4632 6.9592 4.7235
v  -19.6496 6.7341 8.2667
v  -25.6163 6.5967 4.5575
v  -25.4861 6.6517 4.1754
v  -25.9059 6.6178 4.0055
v  -26.0362 6.5646 4.3878
v  -19.2590 6.7624 8.3559
v  -18.0821 6.8436 8.5498
v  -26.6660 -0.3643 3.8322
v  -26.8096 -0.2913 4.1971
v  -27.1457 -0.2989 4.0482
v  -26.9993 -0.3707 3.6833
v  -20.6723 -0.0778 6.2489
v  -20.3502 -0.0627 6.3587
v  -20.2330 0.0335 4.7764
v  -20.1316 0.1483 4.4282
v  -20.5596 -0.1039 5.8763
v  -20.2428 -0.0905 5.9835
v  -19.9473 6.6672 3.8555
v  -19.6222 6.6970 3.9844
v  -19.5409 6.5301 3.6757
v  -19.8617 6.4997 3.5504
v  -20.5515 0.0206 4.6664
v  -20.4470 0.1369 4.3203
v  -24.8613 3.9199 8.1334
v  -24.8610 3.5740 8.1824
v  -24.5411 5.9702 6.9299
v  -24.1398 5.9964 7.1040
v  -21.7279 6.8686 4.1710
v  -21.3418 6.9036 4.3629
v  -20.9228 1.7187 2.1253
v  -20.9729 1.4118 2.3084
v  -21.3310 1.3795 2.1637
v  -21.2809 1.6857 1.9786
v  -29.7874 -0.4742 2.2638
v  -29.9739 -0.4136 2.5971
v  -29.5821 -0.4559 2.3888
v  -29.7660 -0.3956 2.7271
v  -35.2709 -0.8593 -1.3792
v  -35.4073 -0.8005 -1.1480
v  -35.7072 -0.7568 -1.3251
v  -35.5764 -0.8136 -1.5500
v  -37.7769 1.5268 -0.7038
v  -37.8223 1.6970 -0.7419
v  -36.3881 4.0557 -0.2646
v  -36.5942 3.9969 -0.4298
v  -37.1688 3.7990 -0.8550
v  -37.1802 3.6659 -0.7858
v  -37.0021 3.7296 -0.6548
v  -36.9879 3.8681 -0.7269
v  -36.9472 4.4576 -2.3622
v  -36.6738 4.5999 -2.2332
v  -37.0243 4.4469 -2.1539
v  -36.7582 4.5827 -2.0204
v  -37.4808 1.4572 -3.9696
v  -37.2686 1.4306 -4.1056
v  -37.4653 1.2182 -3.8982
v  -37.2552 1.1947 -4.0347
v  -25.2545 3.8994 7.9751
v  -25.2532 3.5545 8.0258
v  -28.0912 3.7476 6.9076
v  -27.9903 5.0146 6.3528
v  -27.6012 5.0368 6.5002
v  -27.5477 5.3135 6.2872
v  -27.9362 5.2910 6.1389
v  -28.0831 4.0826 6.8154
v  -23.9558 4.1253 0.3634
v  -24.0023 4.4518 0.4243
v  -23.5991 4.4949 0.5766
v  -23.5538 4.1679 0.5138
v  -25.4812 1.3333 0.3837
v  -25.1233 1.3557 0.5073
v  -25.4496 1.6362 0.2250
v  -25.0910 1.6610 0.3462
v  -27.8406 0.2411 0.3574
v  -27.9403 0.0569 0.6013
v  -29.4556 3.6587 6.3885
v  -29.7801 3.6329 6.2510
v  -28.4470 4.0613 6.6810
v  -28.4555 3.7262 6.7741
v  -26.9649 5.0222 -0.1644
v  -27.0612 5.2717 0.0101
v  -26.7937 5.3063 0.0989
v  -26.6992 5.0559 -0.0770
v  -26.6419 1.2705 -0.0203
v  -26.6103 1.5649 -0.1680
v  -26.3491 1.5803 -0.0767
v  -26.3803 1.2839 0.0739
v  -29.7784 3.2897 6.3124
v  -29.4537 3.3156 6.4500
v  -28.1418 0.0434 0.4950
v  -28.0389 0.2267 0.2524
v  -34.7284 4.5091 -3.5601
v  -35.0635 4.3937 -3.6840
v  -35.1984 4.5305 -3.4976
v  -34.8651 4.6499 -3.3668
v  -34.5982 5.3053 -0.9267
v  -34.4494 5.3454 -1.1832
v  -34.7553 5.2667 -1.3990
v  -34.8961 5.2316 -1.1482
v  -31.5990 5.8087 -0.2712
v  -31.5084 4.3315 -2.9197
v  -31.6250 4.5783 -2.7644
v  -31.8664 5.7639 -0.4788
v  -31.7889 5.8379 0.0263
v  -32.0545 5.7924 -0.1850
v  -31.8354 4.2706 -3.1022
v  -31.9502 4.5165 -2.9503
v  -35.6115 1.0160 1.1291
v  -35.6494 1.1793 1.1313
v  -35.8270 1.1568 0.9619
v  -35.7906 0.9909 0.9595
v  -34.2443 -0.3720 -3.1964
v  -33.3953 -0.8864 -1.6652
v  -33.7268 -0.8847 -1.8413
v  -31.5523 -0.2731 -1.9672
v  -33.5447 -0.9446 -1.4021
v  -33.8730 -0.9409 -1.5846
v  -34.5767 -0.3525 -3.3045
v  -34.2213 1.6605 2.6574
v  -34.0495 1.6703 2.8239
v  -34.1897 1.3543 2.5792
v  -34.0078 1.3581 2.7457
v  -33.0461 0.5735 2.9797
v  -32.7992 0.6133 3.2026
v  -31.4462 -0.0675 -2.1919
v  -31.1308 -0.0309 -2.0146
v  -31.2385 -0.2376 -1.7885
v  -31.2124 0.6822 -2.7514
v  -31.2764 0.4129 -2.5847
v  -29.2154 3.4859 -2.0228
v  -29.2789 3.7984 -1.9715
v  -32.5584 2.9416 -3.9194
v  -32.5158 2.6359 -3.9342
v  -32.8717 2.5784 -4.0725
v  -32.9136 2.8799 -4.0596
v  -34.1570 -0.1947 -3.3885
v  -31.5413 0.6436 -2.9220
v  -31.6041 0.3761 -2.7562
v  -34.4930 -0.1813 -3.4901
v  -32.9038 0.3215 2.7989
v  -32.6539 0.3615 3.0191
v  -10.5436 13.4692 2.6163
v  -10.9467 13.5116 2.5860
v  -12.3198 14.2837 3.6964
v  -11.9007 14.2481 3.7221
v  -10.9620 13.7132 2.8541
v  -10.5544 13.6723 2.8832
v  -31.9241 10.2426 -5.1167
v  -32.0086 10.0209 -5.0577
v  -31.9793 8.1973 -3.1650
v  -32.0422 8.2951 -3.0185
v  -32.1799 8.4295 -3.1666
v  -32.1208 8.3355 -3.3158
v  -18.1258 12.5835 7.4991
v  -18.2003 11.2752 7.6226
v  -17.8664 11.2668 7.7202
v  -17.8595 11.5996 7.7357
v  -18.1976 11.6085 7.6391
v  -18.0810 12.8892 7.3887
v  -16.6303 14.5852 3.2912
v  -14.8369 11.6671 1.0538
v  -14.8492 11.3339 1.0343
v  -15.1263 11.3572 1.0034
v  -15.1174 11.6907 1.0229
v  -16.1554 9.2336 1.6356
v  -16.0878 9.5037 1.4374
v  -27.2316 11.6139 2.5148
v  -27.2196 10.4591 2.7041
v  -27.2492 10.7545 2.6963
v  -26.0275 11.8473 3.5373
v  -26.0494 11.5618 3.6256
v  -25.3115 13.5349 1.9964
v  -25.6011 13.4769 1.7758
v  -25.7406 13.3439 2.0303
v  -25.4474 13.4022 2.2545
v  -27.1909 11.8826 2.4028
v  -23.5030 9.5523 -2.5246
v  -23.4797 9.8439 -2.6144
v  -23.2570 9.9016 -2.4086
v  -23.2798 9.6109 -2.3199
v  -18.8373 14.4746 5.4455
v  -19.1676 14.4540 5.3058
v  -17.0815 14.7708 4.6115
v  -17.1967 14.7449 4.9415
v  -16.9255 14.5914 3.2176
v  -17.0394 14.6799 3.5391
v  -16.7390 14.6735 3.6145
v  -14.5351 14.2871 6.3452
v  -14.4505 14.4050 6.0207
v  -14.8530 14.4306 5.9771
v  -14.9391 14.3117 6.2974
v  -12.3740 14.3763 4.0370
v  -16.7588 14.7573 4.6813
v  -16.8693 14.7306 5.0134
v  -20.1828 8.8305 5.4214
v  -20.2998 9.0698 5.6540
v  -19.8725 8.8527 5.5698
v  -19.9871 9.0918 5.8035
v  -18.4671 12.5902 7.3983
v  -18.4235 12.8964 7.2891
v  -18.9499 14.3239 5.7216
v  -16.3768 9.2401 1.5710
v  -16.3090 9.5102 1.3736
v  -19.7694 8.1864 1.2318
v  -20.8112 11.1903 6.5495
v  -20.8326 11.5216 6.5605
v  -21.1585 11.4930 6.3963
v  -21.1360 11.1629 6.3869
v  -21.9075 13.4359 5.1258
v  -21.8231 13.6608 4.9130
v  -19.2821 14.3034 5.5807
v  -19.4454 12.7143 -0.1603
v  -19.1217 12.7634 -0.0116
v  -19.0459 12.4716 -0.1398
v  -19.3695 12.4237 -0.2860
v  -19.6566 8.3526 0.9616
v  -18.1258 9.1347 0.8152
v  -18.2073 8.8857 1.0330
v  -17.8364 9.1619 0.9493
v  -17.9179 8.9127 1.1678
v  -13.6790 13.7914 2.4058
v  -13.3119 13.7573 2.4272
v  -13.7259 13.9853 2.6791
v  -13.3544 13.9520 2.7004
v  -31.4921 9.1816 -1.7485
v  -31.3425 9.1854 -1.5997
v  -31.3493 9.3264 -1.6211
v  -31.4977 9.3167 -1.7694
v  -31.9262 9.2174 -2.1820
v  -31.9582 9.2862 -2.2232
v  -31.7133 11.3621 -3.1139
v  -31.7615 11.2908 -3.0965
v  -31.6634 11.3276 -3.0125
v  -31.6325 11.4113 -3.0659
v  -29.1488 12.2704 -4.3904
v  -31.7929 10.1602 -5.2560
v  -31.8752 9.9402 -5.1987
v  -30.2528 10.3495 -5.8204
v  -30.2895 10.2405 -5.8320
v  -31.4316 8.3188 -4.8751
v  -31.4677 8.4980 -4.9943
v  -31.2677 8.4556 -5.0862
v  -31.2392 8.2818 -4.9689
v  -21.0763 8.0970 0.6495
v  -20.0948 8.1617 1.0861
v  -22.2384 13.3917 4.9543
v  -22.1546 13.6152 4.7412
v  -21.1544 13.4553 -0.0255
v  -21.0349 13.2439 -0.2419
v  -19.9829 8.3271 0.8185
v  -20.9668 8.2589 0.3925
v  -21.4006 8.0785 0.5032
v  -25.7273 11.8953 3.7521
v  -24.8135 12.0215 4.3166
v  -24.7786 12.3027 4.1999
v  -24.4845 12.0633 4.5003
v  -24.4503 12.3465 4.3838
v  -21.4750 13.3907 -0.1842
v  -21.3545 13.1802 -0.3970
v  -22.8594 8.7101 -1.2625
v  -22.7890 8.9534 -1.4211
v  -21.2914 8.2392 0.2507
v  -25.7489 11.6078 3.8405
v  -23.0744 8.6670 -1.4198
v  -23.0011 8.9092 -1.5781
v  -29.0050 12.1672 -4.5728
v  -30.1114 10.3956 -5.8204
v  -28.7195 12.8252 -2.8208
v  -28.8785 12.8194 -2.6058
v  -28.6556 12.8839 -2.3886
v  -28.4871 12.8949 -2.6111
v  -28.8639 12.3764 -4.2321
v  -26.3550 12.3654 -3.7257
v  -26.0952 12.4266 -3.5305
v  -26.5135 12.5432 -3.5461
v  -26.2567 12.6049 -3.3472
v  -28.7153 12.2725 -4.4207
v  -29.8152 8.3738 -0.3732
v  -29.7120 8.2185 -0.4492
v  -29.5050 8.2730 -0.2326
v  -29.6183 8.4354 -0.1612
v  -28.0333 6.9948 -2.4977
v  -27.8697 7.0235 -2.7310
v  -27.5997 7.0274 -2.5558
v  -27.7668 6.9989 -2.3173
v  -27.5194 10.6945 2.4373
v  -27.4926 10.3992 2.4445
v  -27.4960 11.5529 2.2584
v  -28.7564 12.1099 0.1544
v  -28.7047 12.3085 -0.0630
v  -27.4550 11.8207 2.1470
v  -25.5904 10.3218 -4.3704
v  -25.3138 10.3720 -4.1939
v  -25.2904 10.0710 -4.1666
v  -25.5680 10.0228 -4.3424
v  -30.1272 11.5345 -1.1796
v  -29.9966 11.5727 -1.0326
v  -29.5644 12.1264 -1.0626
v  -29.6124 12.1329 -1.1466
v  -29.9472 11.7283 -1.1376
v  -30.0745 11.6927 -1.2831
v  -28.1997 7.9805 -4.6884
v  -27.8902 7.9745 -4.5751
v  -28.1350 8.1909 -4.8366
v  -27.8218 8.1907 -4.7273
v  -30.0907 10.2511 -5.8381
v  -26.7077 7.4311 0.0199
v  -26.8970 7.5544 0.2555
v  -27.1521 7.4995 0.0471
v  -26.9644 7.3772 -0.1852
v  -25.9429 7.2369 -0.9916
v  -26.1313 7.2405 -0.7337
v  -25.6776 7.2929 -0.7910
v  -25.8663 7.2965 -0.5319
v  -41.4846 -4.8701 -2.7851
v  -41.4167 -4.8484 -2.9750
v  -41.9602 -6.7853 -2.8844
v  -41.9026 -6.8004 -3.0885
v  -41.9249 -7.0335 -2.8535
v  -41.8671 -7.0519 -3.0570
v  -20.9118 -8.4700 5.9279
v  -20.9905 -8.6207 6.2848
v  -20.5003 -4.8094 11.9322
v  -20.9634 -4.8461 11.7968
v  -20.5074 -4.4322 11.8963
v  -20.9693 -4.4692 11.7635
v  -22.2427 -3.4842 11.0351
v  -22.2656 -3.8319 11.1727
v  -19.0855 -6.3296 4.1777
v  -19.4694 -6.3250 4.1097
v  -19.4569 -5.9731 3.9844
v  -19.0742 -5.9781 4.0500
v  -35.3216 -7.1002 4.9930
v  -35.2251 -7.3947 4.8798
v  -34.0619 -2.7746 -0.0823
v  -33.1089 -2.6460 0.6731
v  -32.9345 -2.7819 0.4206
v  -33.1874 -2.8165 0.2350
v  -33.3655 -2.6821 0.4858
v  -34.2532 -2.6735 0.1783
v  -34.8474 -2.5611 1.0162
v  -34.6126 -2.5267 1.2198
v  -25.1172 -1.6973 7.5869
v  -24.6721 -1.6548 7.7878
v  -25.2291 -1.8576 7.9145
v  -24.7810 -1.8171 8.1159
v  -35.0468 -2.5916 1.3062
v  -34.8104 -2.5559 1.5137
v  -20.1929 -1.3553 9.2577
v  -20.1363 -1.2356 8.8803
v  -20.6141 -1.3691 9.1787
v  -20.6722 -1.5256 9.5390
v  -20.2456 -1.5073 9.6227
v  -21.2621 -8.4615 5.8265
v  -21.3456 -8.6137 6.1794
v  -25.6513 -6.5068 9.6622
v  -25.7064 -6.1616 9.7665
v  -22.6701 -3.5114 10.8842
v  -22.6952 -3.8582 11.0189
v  -23.6561 -2.3101 3.6561
v  -23.7595 -2.0828 3.9082
v  -23.3536 -2.0461 4.0874
v  -23.2538 -2.2757 3.8325
v  -21.7625 -4.8273 3.2672
v  -21.4412 -4.8294 3.3728
v  -21.4355 -5.1952 3.3908
v  -21.7563 -5.1917 3.2858
v  -34.1213 -8.9101 3.3193
v  -34.4146 -8.9383 3.1035
v  -34.2120 -9.0520 2.8068
v  -33.9214 -9.0214 3.0168
v  -39.2983 -9.1896 -1.1776
v  -39.7047 -8.7239 -0.5180
v  -40.5781 -8.5884 -1.2427
v  -40.5340 -8.6860 -1.3821
v  -40.7750 -8.5261 -1.3910
v  -40.7394 -8.6171 -1.5320
v  -39.8652 -9.1383 -2.6985
v  -39.5952 -9.2338 -2.5542
v  -39.1671 -9.2844 -1.3842
v  -40.2697 -6.3371 0.0224
v  -41.0640 -7.6650 -1.0632
v  -40.9919 -7.6840 -1.0049
v  -41.0150 -7.5819 -0.9937
v  -41.1041 -7.5922 -1.0767
v  -40.2775 -6.1394 0.0004
v  -41.3164 -4.6771 -2.6976
v  -41.2439 -4.6490 -2.8880
v  -40.8942 -5.8308 -4.3455
v  -40.9267 -6.0744 -4.3616
v  -39.9268 -5.1252 -4.5037
v  -40.0395 -5.0861 -4.4586
v  -40.6869 -5.8365 -4.4637
v  -40.7127 -6.0738 -4.4820
v  -39.8390 -7.6597 -4.5372
v  -39.8700 -7.4478 -4.6008
v  -27.7593 -8.8510 4.9107
v  -29.3316 -8.9146 4.2153
v  -29.1842 -8.8815 3.8693
v  -29.6920 -8.9285 4.0500
v  -29.5435 -8.8946 3.7061
v  -29.4521 -5.3069 8.3465
v  -29.8799 -5.3361 8.1798
v  -29.4656 -4.9571 8.3125
v  -29.8939 -4.9867 8.1455
v  -30.1070 -3.0262 1.0118
v  -30.2235 -2.8036 1.2191
v  -30.6223 -2.2931 1.9830
v  -30.2923 -2.2506 2.1186
v  -30.1546 -2.3929 1.8394
v  -30.4824 -2.4358 1.7069
v  -28.1908 -6.6129 1.0635
v  -28.1741 -6.2908 0.9472
v  -27.7930 -6.2641 1.0754
v  -27.8106 -6.5889 1.1938
v  -30.9040 -7.8831 0.6986
v  -30.6155 -7.8596 0.8553
v  -34.0721 -5.6723 6.2776
v  -34.0873 -5.3344 6.2449
v  -33.6971 -5.6357 6.5088
v  -33.7125 -5.2953 6.4758
v  -30.4199 -3.0685 0.8908
v  -30.5387 -2.8465 1.0948
v  -30.6880 -6.7828 0.0850
v  -30.6714 -6.4776 -0.0101
v  -30.8265 -7.6307 0.5099
v  -30.5414 -7.6066 0.6638
v  -27.9079 -8.8438 5.2653
v  -34.9813 -7.0724 5.2697
v  -34.8857 -7.3692 5.1515
v  -30.9657 -6.8146 -0.0824
v  -30.9476 -6.5096 -0.1757
v  -39.8979 -4.9532 -4.4216
v  -39.7958 -5.0533 -4.4971
v  -34.2966 -2.8042 -0.2842
v  -34.4891 -2.7040 -0.0253
v  -36.5910 -3.0227 1.2271
v  -36.8283 -3.0588 0.9951
v  -37.0050 -3.2129 1.2467
v  -36.7674 -3.1772 1.4814
v  -39.4714 -8.7403 -0.3073
v  -39.0290 -9.2237 -0.9685
v  -38.8894 -9.3228 -1.1784
v  -40.1064 -6.3159 0.1982
v  -39.0733 -6.2113 1.3413
v  -39.1924 -6.2209 1.2032
v  -39.1729 -6.4427 1.2113
v  -39.0540 -6.4382 1.3494
v  -35.0139 -8.5565 -2.3717
v  -35.1421 -8.7874 -2.1619
v  -39.7309 -9.1325 -2.9014
v  -39.4563 -9.2283 -2.7635
v  -37.3592 -7.2949 2.9762
v  -37.1370 -7.2770 3.2134
v  -37.2769 -7.5856 2.8797
v  -37.0489 -7.5668 3.1189
v  -34.7321 -8.5287 -2.1843
v  -33.5853 -5.9518 -2.4904
v  -33.5656 -6.2874 -2.4672
v  -33.3361 -5.9147 -2.2862
v  -33.3158 -6.2493 -2.2636
v  -34.8957 -4.8124 -3.0930
v  -34.9941 -4.5175 -2.9943
v  -40.1140 -6.1150 0.1761
v  -39.0719 -5.3455 1.1695
v  -39.0685 -5.1634 1.1017
v  -35.1935 -4.8591 -3.2781
v  -35.2902 -4.5657 -3.1814
v  -38.8356 -5.5814 -4.6990
v  -38.8858 -5.3461 -4.6427
v  -38.5793 -5.2652 -4.5860
v  -38.5200 -5.5090 -4.6468
v  -39.5750 -7.6478 -4.5764
v  -39.5951 -7.4310 -4.6421
v  -34.8617 -8.7611 -1.9724
v  -17.6967 -2.2302 5.1029
v  -17.7596 -1.9842 5.3788
v  -17.3384 -1.9874 5.4102
v  -17.2743 -2.2327 5.1352
v  -17.3788 -6.3213 4.4581
v  -17.8142 -6.3273 4.3898
v  -17.8055 -5.9788 4.2533
v  -17.3705 -5.9742 4.3185
v  -18.2838 -7.4540 11.3219
v  -18.7640 -7.4975 11.1886
v  -18.7185 -7.7623 10.8816
v  -18.2424 -7.7191 11.0125
v  -16.5271 -7.3092 11.8411
v  -16.9431 -7.3389 11.7105
v  -16.5565 -7.0109 12.1288
v  -16.9757 -7.0418 11.9951
v  -16.7642 -4.4342 12.9923
v  -16.7431 -4.8220 13.0072
v  -19.7507 -1.3415 9.3326
v  -19.6996 -1.2265 8.9508
v  -26.9729 -1.8649 6.7495
v  -26.8463 -1.7391 6.4067
v  -27.3012 -1.7793 6.2028
v  -27.4292 -1.9042 6.5467
v  -26.1094 -6.5216 9.4637
v  -26.1662 -6.1787 9.5654
v  -27.3439 -8.8340 5.0872
v  -27.4916 -8.8266 5.4426
v  -25.1071 -7.5968 3.0634
v  -24.6751 -7.5707 3.2388
v  -25.0320 -7.3216 2.8284
v  -24.6001 -7.2940 3.0044
v  -25.0502 -3.6180 2.1903
v  -25.1246 -3.3024 2.3197
v  -25.4884 -3.6599 2.0073
v  -25.5637 -3.3456 2.1350
v  -36.8227 -13.6830 -0.2238
v  -37.6328 -15.6662 0.5401
v  -37.6579 -15.4075 0.5089
v  -37.6729 -15.6448 0.7439
v  -37.6979 -15.3892 0.7126
v  -37.6839 -14.6100 1.1916
v  -37.7173 -14.8480 1.2050
v  -36.7487 -17.3791 1.0203
v  -36.6756 -17.4169 0.8258
v  -18.2394 -17.0556 9.2225
v  -18.1524 -17.0332 8.8269
v  -17.8428 -17.0127 8.9075
v  -17.9246 -17.0329 9.3063
v  -17.6916 -15.9570 6.3987
v  -17.7351 -16.2046 6.6853
v  -18.3802 -10.0081 7.6722
v  -18.1051 -9.9770 7.7339
v  -18.0285 -10.0931 7.3901
v  -18.2999 -10.1242 7.3315
v  -16.4475 -14.6588 5.6882
v  -16.4605 -14.2995 5.5496
v  -30.9262 -15.7900 7.7608
v  -30.8217 -16.0809 7.6387
v  -30.5086 -16.0416 7.8841
v  -30.6110 -15.7490 8.0087
v  -29.8666 -13.0823 8.4474
v  -29.8976 -13.3876 8.5914
v  -29.5902 -12.0233 7.5850
v  -30.7966 -12.2053 6.7597
v  -23.7465 -11.3060 10.1391
v  -27.8717 -11.3663 3.7985
v  -28.1208 -11.4036 3.6663
v  -27.7280 -11.4998 3.5354
v  -27.9734 -11.5368 3.4050
v  -25.9698 -10.7202 6.0336
v  -26.3326 -10.7736 5.8951
v  -29.2845 -11.9782 7.7554
v  -29.1824 -11.7689 7.4709
v  -29.4844 -11.8138 7.3049
v  -24.1402 -11.3479 9.9675
v  -24.4209 -10.5090 6.6509
v  -24.5493 -10.5249 7.0147
v  -24.1576 -10.4756 7.1799
v  -24.0302 -10.4588 6.8151
v  -24.8144 -10.5606 6.4894
v  -30.6750 -11.9916 6.4991
v  -17.7081 -9.9280 10.9822
v  -17.6603 -9.8311 10.5951
v  -18.0034 -9.8688 10.5421
v  -18.0589 -9.9675 10.9253
v  -28.5525 -17.4042 6.7234
v  -28.2559 -17.3825 6.8875
v  -28.3793 -17.5001 6.3800
v  -28.0865 -17.4788 6.5395
v  -18.0173 -16.2093 6.6234
v  -17.9709 -15.9610 6.3410
v  -20.4007 -16.8513 6.8743
v  -20.3103 -16.6847 6.5492
v  -22.1885 -15.0280 11.8087
v  -21.8003 -15.0020 11.9568
v  -21.8630 -14.6591 12.0700
v  -22.2533 -14.6862 11.9220
v  -19.5297 -10.1592 7.2883
v  -19.6266 -10.0687 7.6307
v  -19.3226 -10.0285 7.7518
v  -19.2290 -10.1174 7.4060
v  -20.8680 -10.3494 6.6853
v  -20.9761 -10.2504 7.0134
v  -20.1878 -12.1305 4.8948
v  -19.8488 -12.0801 5.0242
v  -20.2506 -11.8263 5.0214
v  -19.9102 -11.7737 5.1554
v  -20.7565 -16.8737 6.7386
v  -20.6645 -16.7078 6.4152
v  -23.8191 -11.5522 10.4123
v  -21.2360 -10.4003 6.5120
v  -21.3464 -10.2993 6.8367
v  -29.7240 -17.5254 5.9731
v  -29.4274 -17.4877 6.1783
v  -29.5376 -17.6240 5.6564
v  -29.2437 -17.5851 5.8541
v  -36.5518 -17.5191 1.1271
v  -36.4731 -17.5608 0.9316
v  -35.9065 -15.1309 3.5057
v  -36.0932 -15.1592 3.3228
v  -37.1791 -15.3721 2.2195
v  -37.1485 -15.5701 2.2413
v  -35.9172 -14.9064 3.4763
v  -36.1045 -14.9386 3.2938
v  -36.6345 -13.4637 -0.1567
v  -36.5699 -13.1316 1.7319
v  -36.5318 -13.0763 1.5723
v  -36.7570 -13.2157 1.4323
v  -36.7875 -13.2638 1.5913
v  -36.6942 -13.7066 -0.4114
v  -35.8651 -17.3566 -0.4679
v  -36.0053 -17.4017 -0.3112
v  -36.4018 -16.6430 -0.7705
v  -36.3026 -16.8452 -0.7001
v  -36.4697 -16.8721 -0.5498
v  -36.5777 -16.6651 -0.6199
v  -24.8689 -17.1639 5.1469
v  -24.5025 -17.1432 5.2895
v  -24.7711 -17.0127 4.8452
v  -24.4051 -16.9911 4.9841
v  -24.2126 -11.5934 10.2425
v  -24.2928 -10.5262 6.2986
v  -25.8359 -10.7398 5.6879
v  -24.6850 -10.5785 6.1385
v  -22.9059 -15.1459 3.8700
v  -22.5303 -15.1048 4.0047
v  -22.5465 -15.4154 4.1467
v  -22.9224 -15.4547 4.0116
v  -27.3235 -17.2822 4.1144
v  -27.4460 -17.4051 4.3988
v  -29.5770 -13.3439 8.7760
v  -29.5482 -13.0379 8.6300
v  -26.1968 -10.7935 5.5515
v  -25.7465 -14.1753 2.6684
v  -26.0334 -14.2087 2.5785
v  -25.7231 -14.4910 2.7011
v  -26.0106 -14.5220 2.6110
v  -24.3879 -17.1612 8.5829
v  -24.2476 -17.2671 8.2253
v  -23.8652 -17.2449 8.3769
v  -24.0044 -17.1389 8.7340
v  -27.9326 -16.6855 2.5900
v  -27.5833 -17.3071 3.9805
v  -27.7099 -17.4300 4.2616
v  -27.8585 -16.4489 2.4073
v  -36.5058 -13.4884 -0.3475
v  -33.4800 -12.5991 4.5300
v  -33.7621 -12.5221 4.1447
v  -30.0215 -11.6471 2.3296
v  -29.7119 -11.6079 2.5637
v  -29.5445 -11.7417 2.3146
v  -29.8524 -11.7808 2.0831
v  -30.9819 -12.0377 6.2554
v  -31.1065 -12.2530 6.5111
v  -32.9121 -18.2742 2.0229
v  -33.0778 -18.2599 2.2861
v  -32.5886 -18.2665 2.2263
v  -32.7589 -18.2523 2.4939
v  -34.4799 -14.9786 4.8562
v  -34.6272 -14.9903 4.7190
v  -33.2157 -17.3767 -0.4703
v  -32.8679 -17.3760 -0.3476
v  -32.9596 -17.5712 -0.1612
v  -33.3046 -17.5656 -0.2896
v  -35.6630 -17.4903 -0.3898
v  -35.7970 -17.5424 -0.2262
v  -31.6941 -17.0374 6.0301
v  -32.0265 -17.0915 5.7513
v  -32.3735 -13.4796 6.4785
v  -32.3244 -13.1860 6.3174
v  -32.6222 -13.2364 6.0480
v  -32.6591 -13.5293 6.2149
v  -28.1965 -16.7373 2.4073
v  -28.1190 -16.4999 2.2240
v  -34.4967 -14.7318 4.8229
v  -34.6425 -14.7472 4.6863
v  -31.5566 -15.0673 -0.7763
v  -31.5852 -14.7535 -0.7880
v  -31.2269 -14.6962 -0.6274
v  -31.1985 -15.0128 -0.6163
v  -34.5609 -14.4606 -1.4825
v  -34.2363 -14.3818 -1.4464
v  -34.1885 -14.6384 -1.4812
v  -34.5195 -14.7092 -1.5137
v  -31.8707 -17.3065 5.5293
v  -31.5337 -17.2504 5.8064
v  -29.5663 -17.6621 2.7085
v  -29.4244 -17.5141 2.4504
v  -29.1075 -17.4481 2.6716
v  -29.2469 -17.5964 2.9297
v  27.0798 10.8456 4.4421
v  27.0820 10.7387 4.1388
v  26.6589 10.7746 4.1945
v  26.6546 10.8801 4.4971
v  22.9502 8.2227 1.5100
v  27.1009 7.9271 0.4855
v  21.5448 3.6986 15.8294
v  21.5454 3.3951 15.9380
v  24.4533 2.4043 16.3029
v  24.4517 2.7232 16.2166
v  23.7124 2.7454 16.1967
v  23.7143 2.4291 16.2838
v  16.8085 12.2480 4.2364
v  16.8262 12.1501 3.9136
v  -11.9514 14.3433 4.0632
v  -3.3457 13.9977 6.8281
v  -3.9218 14.0396 6.8494
v  -13.9191 -15.5294 12.8432
v  -14.3305 -15.5707 12.8074
v  -15.9430 -13.0547 13.6418
v  -15.8988 -13.4239 13.6346
v  -15.4794 -13.3839 13.6954
v  -15.5274 -13.0153 13.7025
v  -16.1085 -11.6115 13.3598
v  -15.7139 -11.5728 13.4123
v  -15.7547 -11.2434 13.2549
v  -16.1429 -11.2819 13.2058
v  -12.1129 -9.8503 13.2728
v  -13.8834 -8.2018 11.1321
v  -13.8074 -8.0668 11.6209
v  -14.0650 -8.0170 11.5580
v  -14.1250 -8.1624 11.0768
v  -16.3326 -4.7766 13.1448
v  -16.3546 -4.3851 13.1266
v  -13.7088 -1.0863 12.2200
v  -13.6871 -1.4318 12.6726
v  -14.3284 -0.7429 10.0680
v  -14.5482 -0.8200 10.0623
v  -14.4848 -0.8674 10.5534
v  -14.2511 -0.7750 10.5650
v  -14.3216 -0.8439 8.1764
v  -15.2978 -0.9903 8.1553
v  -15.0159 -0.9606 8.1696
v  -17.0247 0.5123 8.6425
v  -17.0550 0.7202 8.9873
v  -17.3787 0.7160 8.9251
v  -17.3452 0.5082 8.5837
v  -13.0127 -0.6435 6.3112
v  -12.9774 -0.5592 6.2746
v  -13.1953 -0.5871 6.7045
v  -13.1619 -0.5132 6.6700
v  -13.7698 -0.0380 7.7266
v  -13.6819 -0.0854 7.2770
v  -13.9003 -0.0157 7.6862
v  -13.8135 -0.0612 7.2382
v  -12.4349 10.1407 1.3738
v  -15.3986 9.8859 7.9464
v  -15.3908 9.5961 7.7599
v  -15.0420 9.5821 7.8364
v  -15.0438 9.8710 8.0266
v  -14.7429 7.9263 4.3188
v  -14.6487 7.9503 3.9665
v  -15.0444 7.9407 4.2872
v  -14.9484 7.9670 3.9379
v  -14.6193 14.1400 6.6541
v  -15.0241 14.1634 6.6015
v  -12.7740 10.1637 1.3509
v  -12.5065 9.8282 1.4793
v  -12.8419 9.8498 1.4593
v  -9.9944 8.8744 1.8131
v  -10.3589 8.8788 1.8697
v  -10.2505 9.1528 1.7245
v  -9.8883 9.1491 1.6804
v  -15.7107 4.6043 2.7088
v  -15.7151 4.9533 2.8008
v  -15.3436 4.9379 2.8130
v  -15.3403 4.5893 2.7248
v  -16.9276 1.7591 3.0755
v  -16.8814 2.0916 2.9082
v  -12.3677 7.3790 6.1088
v  -12.2876 7.2532 5.6732
v  -12.4799 7.2290 5.6648
v  -12.5593 7.3530 6.0997
v  -10.9349 4.3051 2.7269
v  -11.3462 4.3554 2.7739
v  -11.3431 4.7024 2.8137
v  -10.9284 4.6477 2.7569
v  -13.6924 -9.6430 7.7532
v  -13.7739 -9.5392 8.1584
v  -13.5376 -9.5119 8.1405
v  -13.4446 -9.6162 7.7283
v  -12.4478 -9.6421 12.7741
v  -12.8598 -8.7939 11.1714
v  -12.7364 -8.7697 11.6111
v  -12.8024 -8.6836 11.6079
v  -12.9230 -8.7172 11.1660
v  -12.0171 -9.6172 13.1547
v  -12.3154 -9.5143 12.7423
v  -13.5170 -0.0637 9.7405
v  -13.4905 0.0129 9.7123
v  -13.5510 -0.0817 9.2688
v  -13.5777 -0.1495 9.2967
v  -13.1616 1.5301 11.4627
v  -13.7534 -0.3962 9.9219
v  -14.1466 -0.7953 8.1642
v  -13.8580 -0.4848 9.9726
v  -13.7607 -0.4633 10.4457
v  -13.6541 -0.3580 10.3829
v  -13.5280 1.5563 11.2227
v  -15.6711 2.9713 11.0300
v  -16.0280 2.9495 10.9181
v  -15.6406 3.3634 11.1286
v  -16.0016 3.3371 11.0160
v  -17.7671 6.6927 8.9272
v  -17.7063 6.8712 8.5960
v  -9.9196 13.5397 8.1973
v  -10.3150 13.5231 8.1541
v  -10.4262 13.2959 8.4382
v  -10.0330 13.3162 8.4872
v  -12.3832 7.8314 4.3802
v  -12.4937 7.8526 4.7769
v  -12.1359 7.8123 4.3692
v  -12.2568 7.8357 4.7734
v  -10.2442 6.8641 3.1326
v  -10.2267 6.9740 3.1092
v  -11.6654 7.8777 6.0537
v  -11.5986 7.7683 5.6298
v  -11.7109 7.9149 6.0514
v  -11.6448 7.8069 5.6260
v  -12.4962 7.6876 7.9783
v  -12.4724 7.7080 8.4716
v  -13.0798 1.9845 11.7480
v  -13.4387 1.9394 11.5174
v  -12.4359 6.3571 11.5336
v  -12.7917 6.3164 11.3592
v  -12.8517 5.9736 11.6066
v  -12.4960 6.0131 11.7742
v  8.1698 6.5727 14.1700
v  7.5000 6.5650 14.1765
v  7.4730 6.3150 14.3160
v  8.1440 6.3233 14.3111
v  10.8331 6.6105 14.1325
v  10.8129 6.3632 14.2802
v  10.9273 7.5617 13.5071
v  8.2878 7.5364 13.5715
v  7.6240 7.5320 13.5850
v  -8.7348 2.7143 14.0085
v  -8.7238 3.0019 14.0100
v  -5.9815 6.5271 13.8695
v  -6.6064 6.5279 13.7840
v  -5.9458 6.8035 13.7369
v  -6.5700 6.8078 13.6501
v  7.0038 12.2450 8.8502
v  -3.6708 13.6023 8.2588
v  -3.7644 13.4565 8.5925
v  -3.9974 13.9684 7.2204
v  -3.4183 13.9287 7.1971
v  -12.6054 9.7751 8.6588
v  -12.9396 9.7885 8.5535
v  -12.5374 10.0873 8.8402
v  -12.8840 10.0973 8.7311
v  -11.6414 8.4230 7.7430
v  -11.6944 8.2742 7.3276
v  -11.1610 8.6050 9.3691
v  -11.1183 8.7044 9.3320
v  -11.6810 8.4832 7.7394
v  -11.7364 8.3236 7.3247
v  -12.3136 7.7441 7.9737
v  -12.2782 7.7786 8.4623
v  -11.4606 8.1869 9.6246
v  -11.5811 8.0653 9.7169
v  20.8406 3.6913 15.8082
v  20.8411 3.3900 15.9168
v  5.1803 2.2283 15.8618
v  5.8654 2.2367 15.8863
v  5.8735 2.5197 15.8091
v  5.1885 2.5106 15.7857
v  -6.2843 -1.1098 15.6057
v  -8.7639 1.7063 14.0389
v  -8.7707 1.4791 14.0622
v  -8.1250 1.5447 14.2970
v  -8.1191 1.7791 14.2698
v  -6.2855 -1.3934 15.6943
v  -5.4807 -11.6648 15.1468
v  -6.0485 -11.6359 15.1231
v  -5.5075 -11.3444 15.2052
v  -6.0804 -11.3143 15.1740
v  -7.9103 -10.2876 15.0003
v  -7.9566 -10.0046 14.9911
v  -14.2854 -15.8126 12.5254
v  -13.8740 -15.7712 12.5594
v  -15.1671 -13.0824 5.4191
v  -15.2227 -12.7085 5.4317
v  -14.8950 -12.6859 5.4373
v  -14.8352 -13.0582 5.4275
v  -16.1023 -14.6364 5.7149
v  -16.1192 -14.2776 5.5734
v  -12.4489 -12.8814 5.4725
v  -12.8086 -12.9043 5.4706
v  -14.9508 -1.0276 7.7320
v  -15.2352 -1.0529 7.7215
v  -14.2497 -0.9211 7.7326
v  -14.0730 -0.8741 7.7207
v  -12.5998 -3.4697 4.4211
v  -13.0330 -3.4479 4.4826
v  -13.0731 -3.1172 4.5763
v  -12.6344 -3.1417 4.5032
v  -14.1635 -6.1972 4.8348
v  -14.1861 -6.5204 5.0184
v  -14.5717 -6.5386 4.9987
v  -14.5503 -6.2157 4.8145
v  -5.2969 -4.1270 2.6997
v  -7.7249 -2.9101 3.1798
v  -7.0488 -2.9779 2.9999
v  -7.0843 -3.2213 3.0137
v  -7.7582 -3.1544 3.1903
v  -5.2604 -3.8774 2.6750
v  -4.3663 0.4673 2.0291
v  -5.0050 0.4960 2.1435
v  -4.9559 0.7265 2.0904
v  -4.3176 0.6968 1.9791
v  -3.3416 10.9523 1.0704
v  -5.5740 11.0675 1.2153
v  -5.5250 11.3554 1.3190
v  -3.3813 10.6602 0.9715
v  -6.0411 7.8557 1.1475
v  -6.0219 8.0877 1.1073
v  -5.4134 8.0593 0.9970
v  -5.4278 7.8249 1.0314
v  -0.8674 -25.7090 -8.3661
v  -1.2407 -25.8374 -8.5884
v  -0.9827 -27.0710 -7.7081
v  -1.3691 -27.1774 -7.9240
v  -1.0745 -27.3689 -7.4855
v  -1.4641 -27.4704 -7.7004
v  -1.2825 -25.4728 -8.6838
v  -0.9124 -25.3400 -8.4595
v  0.3468 -27.7477 -5.6933
v  -0.1059 -27.8396 -5.9543
v  -8.8537 -27.7897 -8.7342
v  -8.6646 -27.8383 -8.9684
v  -8.6514 -28.0877 -8.8920
v  -8.8399 -28.0389 -8.6576
v  -7.9754 -27.9173 -9.5478
v  -8.2230 -27.9029 -9.3759
v  -6.3450 -29.1854 -6.4739
v  -7.6671 -29.4138 -7.4065
v  -7.5311 -29.3910 -7.3113
v  -6.0457 -29.3762 -8.1779
v  -6.1400 -29.3797 -8.0521
v  -6.3070 -29.4129 -8.1293
v  -6.2171 -29.4109 -8.2479
v  -5.0089 -29.0845 -6.7126
v  -4.8424 -29.0465 -6.6100
v  -4.9752 -29.0501 -6.4177
v  -5.1453 -29.0884 -6.5227
v  -6.1495 -29.1464 -6.3376
v  -7.9781 -27.6608 -9.6109
v  -8.2245 -27.6443 -9.4401
v  0.3460 -23.6786 -7.4902
v  0.1790 -23.3193 -7.4552
v  0.5394 -23.2047 -7.2038
v  0.7106 -23.5619 -7.2381
v  0.0246 -27.6037 -6.2296
v  0.4768 -27.5056 -5.9673
v  -7.4643 -26.6624 -3.7830
v  -7.2560 -26.5756 -3.6262
v  -8.2471 -27.0618 -4.4731
v  -8.3278 -26.8085 -4.4713
v  -7.3675 -26.9308 -3.8180
v  -7.1538 -26.8544 -3.6668
v  -8.5066 -26.9233 -4.6671
v  -8.4289 -27.1690 -4.6638
v  -8.9748 -28.5675 -6.1186
v  -7.6502 -29.3397 -7.1345
v  -7.7868 -29.3621 -7.2275
v  -6.4794 -29.1302 -6.2933
v  -9.3613 -27.5007 -7.6423
v  -9.2726 -27.5865 -7.9311
v  -9.0039 -28.6667 -6.3499
v  -9.3642 -27.2521 -7.7131
v  -9.2741 -27.3339 -8.0014
v  0.4377 -24.4830 1.9278
v  0.2123 -24.1351 1.9342
v  -0.1557 -24.2828 1.6747
v  0.0622 -24.6363 1.6697
v  1.4711 -25.7075 1.5856
v  1.1989 -25.4327 1.7166
v  1.0717 -25.8835 1.3353
v  -1.5355 -26.7994 -0.3451
v  -1.7641 -26.4908 -0.2212
v  -1.1692 -26.7014 -0.0956
v  -1.4041 -26.3944 0.0277
v  -6.2869 -29.0905 -6.1561
v  -5.5872 -28.5678 -4.8595
v  -5.7358 -28.4787 -4.7309
v  -4.7129 -28.3166 -4.0213
v  -4.5001 -28.2787 -3.8558
v  -4.7819 -28.1114 -3.6904
v  -4.9901 -28.1578 -3.8608
v  -8.0083 -6.0896 3.4617
v  -7.3702 -6.1019 3.2982
v  -7.3913 -6.3628 3.3483
v  -8.0267 -6.3553 3.5140
v  -1.0992 3.9115 0.8984
v  -1.8020 3.9881 0.9978
v  2.0459 5.3775 0.1923
v  2.0294 5.1499 0.2160
v  -1.0761 4.1312 0.8586
v  -1.7791 4.2082 0.9586
v  2.2432 9.4376 0.3636
v  2.2261 9.1539 0.2961
v  1.4641 9.1983 0.3629
v  1.4816 9.4817 0.4264
v  -2.7401 10.9159 1.0391
v  -2.7775 10.6234 0.9370
v  2.4386 13.6180 5.1357
v  2.4095 13.6318 5.5010
v  -0.5642 13.8423 5.2466
v  -0.6005 13.8609 5.6162
v  0.1391 13.7992 5.5896
v  0.1733 13.7812 5.2216
v  -3.0563 13.5671 8.2283
v  -3.1461 13.4253 8.5612
v  1.1579 11.1019 11.1566
v  0.3673 11.1130 11.1918
v  0.8432 10.2390 11.8714
v  0.9198 10.4582 11.7063
v  0.2860 10.8973 11.3814
v  1.0774 10.8900 11.3504
v  -3.0836 7.5427 13.5387
v  -3.0366 7.7808 13.3985
v  -3.7723 7.7884 13.3584
v  -3.8184 7.5508 13.4991
v  -0.3166 4.3485 14.9948
v  -0.3343 4.0703 15.0737
v  -3.4447 4.2648 14.8273
v  -2.6778 4.2884 14.8777
v  -2.6611 4.5731 14.8089
v  -3.4290 4.5525 14.7639
v  -0.4289 1.0400 15.7783
v  -3.5287 -1.1569 15.9609
v  -2.7654 -1.1697 16.0348
v  -2.7678 -0.8866 15.9735
v  -3.5304 -0.8755 15.8947
v  -0.4312 0.7647 15.8378
v  -5.6242 -1.1208 15.7077
v  -5.6240 -1.4049 15.7892
v  -0.1738 -7.1873 16.1213
v  -0.9436 -7.1676 16.0777
v  -0.9221 -7.4552 16.0288
v  -0.1524 -7.4779 16.0730
v  -3.0731 -9.3654 15.5948
v  -3.0979 -9.0785 15.6243
v  -3.8095 -9.0484 15.5710
v  -3.7837 -9.3323 15.5462
v  4.1801 1.5374 0.1902
v  4.2224 1.7602 0.1572
v  3.5614 1.6101 0.3310
v  3.6038 1.8320 0.2961
v  7.0192 3.9831 -0.6625
v  6.9926 3.7513 -0.6354
v  2.7456 5.3141 0.0784
v  2.7276 5.0848 0.1012
v  4.8247 7.1164 -0.3029
v  5.4520 7.0764 -0.4075
v  7.3560 8.0345 -0.5498
v  7.3732 8.3121 -0.4846
v  4.8395 7.3766 -0.2843
v  5.4677 7.3381 -0.3858
v  5.0181 10.4618 0.5432
v  4.9992 10.1701 0.4068
v  5.6489 10.4305 0.4805
v  5.6305 10.1386 0.3411
v  3.1417 13.5833 5.1046
v  3.1136 13.5943 5.4705
v  6.3905 12.2867 8.8892
v  6.3262 12.1335 9.1650
v  6.9410 12.0921 9.1249
v  5.9961 9.3223 12.3368
v  6.0510 9.5347 12.1630
v  1.5875 10.2358 11.8497
v  1.6637 10.4528 11.6800
v  2.7611 6.5234 14.1872
v  3.4450 6.5280 14.1895
v  3.4817 6.7796 14.0560
v  2.7989 6.7759 14.0551
v  0.4277 4.3646 15.0239
v  0.4094 4.0879 15.1069
v  0.3091 1.0477 15.8436
v  0.3066 0.7701 15.9030
v  2.4709 -3.6350 16.5609
v  2.4607 -3.3314 16.5580
v  1.7726 -3.3219 16.5326
v  1.7828 -3.6253 16.5367
v  2.6514 -7.2697 16.2294
v  3.3350 -7.2896 16.2439
v  3.3167 -6.9880 16.2933
v  2.6326 -6.9698 16.2776
v  -7.2661 -15.1449 12.9565
v  -6.8052 -15.1397 12.9373
v  -6.8181 -14.9089 13.2462
v  -7.2855 -14.9113 13.2625
v  -10.3582 -16.2923 10.0260
v  -10.7303 -16.3275 10.0296
v  -10.3618 -16.2780 10.4451
v  -10.7367 -16.3121 10.4482
v  -12.3692 -13.2297 5.5287
v  -12.7317 -13.2575 5.5225
v  -7.5127 -15.1704 6.6137
v  -7.5504 -14.9484 6.2970
v  -4.0762 -14.4408 5.1161
v  -4.0908 -14.1743 4.8883
v  -3.5785 -14.2224 4.8241
v  -3.5642 -14.4890 5.0550
v  -6.6748 7.8802 1.2842
v  -6.6498 8.1095 1.2369
v  -9.8960 6.9015 2.8396
v  -9.9134 6.7801 2.8657
v  -8.9028 5.0803 2.3191
v  -9.4583 5.2204 2.4846
v  -8.9351 4.8301 2.3260
v  -9.4920 4.9631 2.4781
v  -9.4576 1.6073 2.9148
v  -9.3793 1.8930 2.8095
v  -10.0206 1.6179 3.0475
v  -9.9348 1.9128 2.9297
v  -10.5236 -2.5682 4.0300
v  -10.4839 -2.3338 4.0391
v  -11.1256 -2.4742 4.2450
v  -11.0802 -2.2396 4.2647
v  -10.6156 -6.0824 4.2285
v  -10.6040 -5.7834 4.1452
v  -9.9891 -5.7871 3.9705
v  -10.0018 -6.0776 4.0421
v  -10.4847 -8.0961 4.8596
v  -9.9306 -8.0823 4.5831
v  -9.9024 -8.2917 4.6254
v  -10.4454 -8.2978 4.9041
v  -9.9067 -11.6856 4.9900
v  -9.8338 -11.9888 5.0069
v  -10.2435 -11.9412 5.1201
v  -10.3267 -11.6304 5.1211
v  -7.9439 -15.1584 6.6630
v  -7.9837 -14.9326 6.3497
v  -9.0752 -15.1802 13.0123
v  -9.0388 -15.4051 12.6954
v  -8.6175 -15.3913 12.6821
v  -8.6497 -15.1695 13.0025
v  -9.4649 -15.1920 13.0184
v  -9.1169 -14.9328 13.3018
v  -9.5102 -14.9415 13.3038
v  -8.5094 -10.2483 14.8634
v  -8.5608 -9.9714 14.8439
v  -11.6188 -3.8155 15.0103
v  -12.1769 -3.8708 14.8038
v  -12.1512 -4.2673 14.8396
v  -11.5940 -4.2035 15.0448
v  -13.2359 -1.3946 12.9729
v  -13.2026 -1.0922 12.6919
v  -11.3299 0.5750 12.8819
v  -10.7604 0.6448 13.2369
v  -10.7412 0.8281 13.1895
v  -11.3088 0.7461 12.8373
v  -9.3940 2.6084 13.7621
v  -9.3809 2.8985 13.7730
v  -10.9402 8.6961 9.7213
v  -11.2379 8.2361 10.0089
v  -11.3515 8.1016 10.1120
v  -10.8947 8.8056 9.6777
v  -8.6855 12.6954 9.4144
v  -8.1585 12.7507 9.4630
v  -8.5627 12.9588 9.1829
v  -8.0365 13.0046 9.2204
v  -7.5125 14.2957 5.3728
v  -7.9759 14.3067 5.3658
v  -7.4633 14.2558 4.9969
v  -7.9250 14.2683 4.9902
v  -6.1320 11.0895 1.2591
v  -6.0805 11.3770 1.3582
v  2.0215 -27.3421 -4.7103
v  2.4045 -27.2247 -4.4841
v  3.5093 -26.8058 -3.8323
v  3.3937 -27.0254 -3.5260
v  3.0232 -27.1795 -3.7444
v  3.1440 -26.9586 -4.0477
v  2.1336 -27.0884 -4.9905
v  2.5107 -26.9705 -4.7670
v  6.6590 -24.0627 -3.3137
v  6.2441 -24.2998 -3.5143
v  6.1792 -23.9809 -3.7647
v  6.5877 -23.7460 -3.5692
v  1.3440 -26.1370 1.1774
v  1.7476 -25.9561 1.4257
v  1.8773 -25.5200 1.8428
v  1.6001 -25.2499 1.9759
v  6.2787 -24.6802 3.1057
v  5.7962 -24.9325 2.7888
v  6.0880 -25.0608 2.5082
v  6.5753 -24.8086 2.8199
v  -2.9263 -11.7928 15.1639
v  -2.9195 -12.1068 15.0622
v  -3.6187 -11.7578 15.1706
v  -3.6078 -12.0739 15.0761
v  -3.1131 -15.1771 12.7362
v  -3.7385 -15.1602 12.7776
v  -3.1498 -15.3788 12.3995
v  -3.7678 -15.3623 12.4408
v  22.9471 8.0088 1.3686
v  22.3111 8.1282 1.4186
v  27.1013 7.6902 0.3245
v  17.4272 8.9984 0.1978
v  16.7979 9.1524 0.1241
v  16.8113 9.4038 0.3056
v  17.4393 9.2457 0.3759
v  9.9052 10.1512 0.0720
v  9.8854 9.8646 -0.0908
v  9.2873 9.9137 -0.0383
v  9.3066 10.2018 0.1212
v  12.1493 7.6396 -1.0863
v  12.1247 7.3612 -1.1649
v  7.9566 7.9954 -0.6382
v  7.9748 8.2738 -0.5694
v  22.2434 4.8338 -0.1001
v  22.2394 4.6135 -0.1739
v  21.5942 4.7345 -0.2395
v  21.6012 4.9590 -0.1689
v  7.6130 3.9243 -0.7824
v  7.5871 3.6913 -0.7554
v  14.2541 2.2729 -1.4743
v  13.6108 2.3433 -1.4617
v  14.3184 3.2184 -1.5635
v  13.6753 3.2895 -1.5525
v  14.3928 4.1901 -1.5959
v  13.7494 4.2626 -1.5905
v  13.6924 3.5297 -1.5680
v  14.3356 3.4584 -1.5779
v  13.7710 4.5118 -1.5884
v  14.4145 4.4388 -1.5920
v  24.8932 5.3448 -0.2301
v  25.5489 5.2679 -0.4101
v  25.5455 5.0458 -0.4882
v  24.8894 5.1241 -0.3118
v  12.7776 7.5756 -1.1110
v  12.7522 7.2974 -1.1916
v  -0.5385 -13.9410 3.2983
v  -0.8864 -13.8370 3.4853
v  -0.5343 -15.0039 4.3727
v  -0.2000 -15.1051 4.2273
v  -0.1504 -15.3515 4.5533
v  -0.4865 -15.2522 4.6860
v  2.8627 -10.9025 15.4129
v  2.1897 -10.8616 15.4381
v  2.8682 -11.2095 15.3043
v  2.1961 -11.1678 15.3347
v  2.7932 -13.3450 14.2193
v  3.4670 -13.3930 14.1487
v  11.5747 0.7055 -0.9660
v  10.9492 0.7756 -0.8984
v  10.9702 1.0046 -0.9537
v  11.5941 0.9350 -1.0233
v  22.1386 0.4469 -0.9593
v  22.1463 0.6722 -0.9403
v  14.2383 2.0392 -1.4462
v  13.5949 2.1095 -1.4335
v  19.3452 -1.1190 -0.9868
v  18.6702 -1.0464 -0.9920
v  19.3301 -1.3563 -1.0045
v  18.6540 -1.2845 -1.0074
v  22.8049 0.3729 -1.0410
v  22.8119 0.5976 -1.0202
v  10.9253 -8.6635 15.7975
v  24.6272 -6.4699 15.9924
v  24.6383 -6.7730 15.8926
v  25.3460 -6.8460 15.8930
v  25.3374 -6.5427 15.9920
v  11.6123 -8.6651 15.7570
v  16.3480 -7.3935 15.8786
v  15.6573 -7.3994 15.9196
v  15.6796 -7.7081 15.8163
v  16.3707 -7.7011 15.7719
v  24.5182 -2.7351 16.7176
v  23.7911 -2.6793 16.7153
v  23.7992 -2.9946 16.6872
v  24.5250 -3.0519 16.6883
v  7.8995 -1.2634 16.5975
v  7.8963 -0.9634 16.5660
v  8.5826 -1.2654 16.6112
v  8.5795 -0.9648 16.5806
v  16.0604 -0.0419 16.5608
v  16.0583 0.2636 16.5204
v  10.6791 -3.7082 16.6923
v  11.3594 -3.7104 16.6887
v  11.3500 -3.4040 16.7005
v  10.6697 -3.4017 16.7028
v  13.3998 -3.7136 16.6684
v  12.7194 -3.7130 16.6764
v  16.0947 -2.4891 16.6911
v  16.0881 -2.1836 16.6930
v  16.7411 -0.0343 16.5728
v  16.7385 0.2721 16.5334
v  27.0182 -0.3414 16.7604
v  26.5393 -0.3076 16.7579
v  26.5408 -0.6353 16.7761
v  27.0190 -0.6703 16.7779
v  12.7302 -4.0195 16.6570
v  13.4108 -4.0199 16.6475
v  24.6163 -6.1653 16.0857
v  25.3289 -6.2377 16.0845
v  16.7797 -2.4869 16.6907
v  16.7726 -2.1809 16.6945
v  27.0146 6.0855 14.9381
v  26.5327 6.0866 14.9226
v  26.5318 5.7892 15.0760
v  27.0142 5.7859 15.0913
v  16.0941 5.7534 14.6637
v  16.0879 5.4901 14.8082
v  11.5832 7.5704 13.4886
v  11.4952 6.6221 14.1206
v  11.4765 6.3753 14.2699
v  15.4259 5.7255 14.6641
v  16.1274 6.7647 14.0458
v  16.1383 7.0062 13.8816
v  15.4189 5.4629 14.8071
v  27.0206 8.2952 13.4827
v  27.0196 8.0419 13.6883
v  16.7944 6.7986 14.0416
v  16.8046 7.0403 13.8757
v  22.1846 11.4587 6.2949
v  24.7734 11.2506 5.9675
v  24.1136 11.2868 6.0522
v  24.7863 11.2099 5.6595
v  22.2042 11.4208 5.9924
v  24.1285 11.2469 5.7461
v  27.0513 11.2003 8.1468
v  27.0533 11.2314 7.8434
v  21.5547 11.5492 6.3692
v  21.5763 11.5162 6.0657
v  6.6478 9.3155 12.3103
v  6.7002 9.5258 12.1341
v  8.3212 7.7686 13.4142
v  7.6590 7.7651 13.4294
v  10.9544 7.7896 13.3427
v  14.3003 11.5601 9.3805
v  14.3483 11.7116 9.1125
v  13.7045 11.7084 9.1695
v  13.6547 11.5527 9.4367
v  24.5481 9.8278 11.6079
v  24.5400 9.6545 11.8519
v  23.8303 9.7788 11.6147
v  23.8202 9.6055 11.8542
v  11.6088 7.7971 13.3226
v  16.2605 8.5628 12.6369
v  16.2895 8.7738 12.4504
v  16.9217 8.5937 12.6157
v  16.9501 8.8030 12.4261
v  19.4290 11.3814 8.9071
v  19.3948 11.2650 9.1751
v  20.0333 11.2252 9.1116
v  20.0657 11.3345 8.8424
v  -37.6990 -14.8429 1.3500
v  -37.6672 -14.6116 1.3358
v  -37.2903 -15.4001 2.1022
v  -37.2583 -15.5998 2.1251
v  -35.7373 -13.0562 2.8430
v  -35.9650 -13.1236 2.6588
v  -35.9779 -13.2174 2.7242
v  -35.7575 -13.1531 2.9045
v  -34.5143 -17.1897 4.0177
v  -34.5852 -17.0779 4.0339
v  -34.7904 -17.1084 3.8489
v  -34.7296 -17.2221 3.8236
v  -33.7553 -12.7736 4.4961
v  -34.1986 -13.1077 4.4130
v  -34.1236 -13.2573 4.5880
v  -34.2988 -13.2004 4.3836
v  -34.2310 -13.3398 4.5397
v  -33.9284 -12.6649 4.2162
v  11.5542 0.4752 -0.9104
v  -2.5655 -3.3401 2.4453
v  -2.5166 -3.1015 2.3931
v  -1.8032 -3.1537 2.4009
v  -1.8531 -3.3941 2.4588
v  -1.9202 -0.5826 1.8434
v  -1.8645 -0.3587 1.7980
v  -2.6115 -0.5397 1.9201
v  -2.5573 -0.3155 1.8782
v  0.0031 -11.8523 1.8995
v  0.3792 -11.9758 1.5874
v  -0.5025 -13.6716 3.0728
v  -0.8531 -13.5648 3.2748
v  3.8097 -0.2436 0.5939
v  3.1860 -0.1630 0.7453
v  10.9270 0.5460 -0.8448
v  3.7598 -0.4660 0.6664
v  3.1351 -0.3840 0.8195
v  -3.0626 -6.2876 3.0837
v  -3.0249 -6.0394 3.0332
v  -2.3263 -6.1127 3.0379
v  -2.3665 -6.3620 3.0807
v  -4.6825 -4.1691 2.6512
v  -4.6439 -3.9219 2.6191
v  1.6482 -7.9859 1.2330
v  2.6563 -10.2897 -0.2089
v  2.1694 -10.1822 0.1334
v  2.3019 -9.9264 0.0829
v  2.7983 -10.0295 -0.2638
v  1.1461 -7.9110 1.6600
v  0.0980 -11.6023 1.7812
v  0.4799 -11.7243 1.4572
v  24.6855 -4.5182 -1.3345
v  25.3830 -4.5906 -1.3977
v  3.1640 -3.0334 1.4527
v  2.5306 -2.9227 1.6571
v  2.5864 -2.6770 1.5937
v  3.2202 -2.7847 1.3985
v  1.2340 -7.6734 1.6802
v  1.7455 -7.7496 1.2561
v  24.6790 -4.7515 -1.3059
v  25.3781 -4.8230 -1.3675
v  -41.8109 -6.6232 -1.6282
v  -41.8242 -6.4229 -1.6534
v  -41.8950 -6.4380 -1.7673
v  -41.8812 -6.6453 -1.7415
v  -41.6163 -7.3773 -1.5246
v  -41.5448 -7.3293 -1.4244
v  -41.6088 -7.1594 -1.4514
v  -41.6849 -7.2009 -1.5550
v  -39.7684 -8.6093 -0.4104
v  -40.1468 -4.4479 -0.5178
v  -40.3457 -4.5088 -0.7064
v  -40.1291 -4.3538 -0.5839
v  -40.3360 -4.4183 -0.7779
v  -39.5442 -8.6225 -0.2029
v  -38.9749 -5.3157 1.2824
v  -38.9743 -5.1279 1.2077
v  -39.3637 -4.2890 0.2958
v  -39.3092 -4.1831 0.2632
v  -39.1912 -4.2889 0.5000
v  -39.1242 -4.1806 0.4830
v  -37.8873 1.4916 -0.7992
v  -37.9375 1.6628 -0.8418
v  -36.2997 0.4410 0.3797
v  -36.3202 0.5548 0.4031
v  -36.3676 4.1860 -0.3307
v  -36.5789 4.1247 -0.4974
v  -36.0784 0.4426 0.5689
v  -36.1057 0.5576 0.5882
v  -34.8106 4.5294 1.0676
v  -34.6999 4.6224 1.0855
v  -34.7279 3.8271 1.7428
v  -34.6180 3.8783 1.8312
v  -34.6042 4.1079 1.6685
v  -34.7166 4.0451 1.5943
v  -34.9146 4.6151 0.8719
v  -34.8130 4.7112 0.8696
v  -32.0904 8.9378 -2.3422
v  -32.0512 9.0178 -2.2916
v  -32.0311 9.2426 -2.2886
v  -31.9623 9.1641 -2.2099
v  -31.9694 8.8591 -2.2136
v  -31.9381 8.9455 -2.1712
v  -30.1003 8.8572 -0.3303
v  -29.9492 8.9191 -0.1669
v  -30.0036 9.0232 -0.2050
v  -30.1453 8.9657 -0.3579
v  -28.8681 12.2415 -0.1994
v  -28.9142 12.0472 0.0078
v  -29.5107 12.1813 -1.0525
v  -29.5575 12.2197 -1.1774
v  -4.9824 -29.1598 -8.2677
v  -5.2028 -29.2146 -8.3729
v  -5.1552 -29.1818 -8.4843
v  -4.9274 -29.1243 -8.3782
v  -3.9276 -28.8845 -6.2361
v  -4.0592 -28.9030 -6.2627
v  -3.9550 -28.8919 -6.4938
v  -3.8227 -28.8698 -6.4853
v  -8.8829 -28.6643 -6.1030
v  -8.5873 -28.8361 -6.0939
v  -8.5324 -28.7582 -5.9125
v  -8.4852 -28.8659 -6.1022
v  -8.4328 -28.7936 -5.9336
v  -8.9118 -28.7600 -6.3253
v  -5.4918 -28.5421 -4.7788
v  -5.6511 -28.4503 -4.6496
v  4.1314 -11.8845 -1.0664
v  4.6912 -12.0320 -1.3165
v  4.3076 -11.6087 -1.1583
v  4.8773 -11.7544 -1.4011
v  2.0952 -17.0946 6.8756
v  1.7547 -16.9300 7.0171
v  2.4509 -17.2445 7.2877
v  2.0854 -17.0624 7.4358
v  5.1920 -21.8626 5.6390
v  5.5561 -22.1411 5.6023
v  3.7431 -22.8090 4.3711
v  3.4441 -22.4995 4.3758
v  3.0390 -22.7315 4.0446
v  3.3266 -23.0456 4.0383
v  2.7640 -13.6439 14.0111
v  3.4393 -13.6937 13.9347
v  8.0923 -21.7802 6.4483
v  8.5178 -21.9871 6.2542
v  5.8983 -21.8802 5.9185
v  5.5154 -21.6077 5.9535
v  4.6250 -18.7768 7.3711
v  4.1557 -18.5367 7.1390
v  4.5393 -18.5162 7.6086
v  4.0421 -18.2890 7.3673
v  11.2327 -2.1485 -0.6316
v  11.1907 -2.3950 -0.6547
v  16.4172 -3.6900 -1.4133
v  16.4400 -3.4509 -1.3638
v  17.1226 -3.5190 -1.3688
v  17.1025 -3.7579 -1.4148
v  11.8776 -2.2297 -0.7394
v  11.8372 -2.4753 -0.7695
v  7.5324 -5.6871 -1.0721
v  6.8893 -5.6216 -0.7800
v  6.9857 -5.3914 -0.6867
v  7.6262 -5.4561 -0.9745
v  9.9730 -7.0629 -2.1863
v  9.2390 -6.9453 -2.0582
v  19.0388 -5.9307 -1.4198
v  19.7358 -5.9873 -1.2815
v  19.7211 -6.2409 -1.2665
v  19.0226 -6.1877 -1.4148
v  18.3382 -5.8692 -1.5415
v  9.8839 -7.3374 -2.2544
v  9.1453 -7.2125 -2.1288
v  9.0373 -9.3285 -2.4609
v  8.8615 -9.6028 -2.4464
v  8.2510 -10.3956 -2.3460
v  7.5563 -10.2103 -2.2160
v  7.7575 -9.9498 -2.2599
v  8.4657 -10.1353 -2.3878
v  2.0093 -16.0751 2.6973
v  1.9671 -16.2995 3.1379
v  1.6979 -16.1427 3.3794
v  1.7142 -15.9134 2.9586
v  19.0551 -5.6771 -1.4204
v  18.3562 -5.6135 -1.5319
v  12.9720 -7.5467 -2.3335
v  12.2165 -7.4288 -2.3509
v  7.0077 -18.2824 -3.1147
v  6.6803 -18.5260 -3.2291
v  6.3038 -18.2918 -3.0847
v  6.6176 -18.0518 -2.9759
v  10.0441 -23.7353 1.3544
v  9.8863 -23.8440 1.7697
v  10.5118 -23.4446 1.6074
v  10.3543 -23.5537 2.0307
v  8.4539 -23.0207 -2.4776
v  8.3554 -22.7111 -2.7549
v  8.7870 -22.4486 -2.5614
v  8.8923 -22.7569 -2.2785
v  13.2557 -20.8088 1.1810
v  12.9954 -21.0641 1.0375
v  12.0665 -18.5765 -1.5840
v  12.3242 -18.8836 -1.3277
v  12.3103 -18.3362 -1.4563
v  12.5717 -18.6412 -1.1967
v  24.9224 -11.1351 1.2704
v  25.5640 -11.1161 1.2606
v  25.6033 -11.3414 1.4841
v  24.9751 -11.3635 1.4922
v  27.0525 -9.2131 -0.1747
v  26.6035 -9.2095 -0.1544
v  27.0503 -8.9735 -0.2968
v  27.0553 -9.4540 -0.0426
v  26.6088 -9.4517 -0.0227
v  7.1081 -15.4763 -2.1716
v  6.9284 -15.7363 -2.1365
v  6.3919 -15.5723 -1.9178
v  6.5691 -15.3039 -1.9802
v  11.7279 -16.3999 -1.8963
v  11.4821 -16.6481 -1.9963
v  12.0993 -16.6947 -1.7206
v  11.8506 -16.9427 -1.8314
v  9.7903 -9.5149 -2.5325
v  9.6058 -9.7945 -2.5212
v  12.9074 -7.8506 -2.3736
v  12.1447 -7.7257 -2.4002
v  20.6256 -12.9352 1.6161
v  21.1616 -12.7599 1.7509
v  12.8083 -15.4048 -1.5280
v  12.4053 -15.1140 -1.7360
v  14.0738 -14.4334 -1.1816
v  13.6669 -14.1499 -1.4438
v  12.7006 -14.8704 -1.6627
v  13.1048 -15.1596 -1.4413
v  14.0204 -13.9108 -1.3677
v  14.4275 -14.1931 -1.0917
v  8.7935 -21.7197 6.4896
v  8.3515 -21.5150 6.6860
v  13.2415 -21.0159 1.6179
v  12.9809 -21.2740 1.4726
v  15.0374 -17.6870 0.7710
v  14.7600 -17.9557 0.6213
v  14.5834 -17.6842 0.2707
v  14.8615 -17.4185 0.4193
v  20.7833 -13.1732 1.9058
v  21.3047 -12.9935 2.0333
v  25.4461 -13.8243 5.8387
v  25.4452 -13.8867 6.1588
v  25.9586 -13.7565 5.8401
v  25.9583 -13.8187 6.1557
v  16.3285 -18.0035 4.7374
v  15.9980 -18.2970 4.6136
v  16.1186 -18.2014 4.1495
v  16.4435 -17.9101 4.2768
v  15.5024 -18.0947 6.6220
v  15.1407 -18.3943 6.5071
v  17.8176 -16.8628 5.1417
v  17.4210 -17.1400 5.0532
v  17.7062 -16.9257 5.5823
v  17.2983 -17.2036 5.5016
v  8.2921 -11.1449 15.0642
v  8.2808 -10.8281 15.1974
v  8.9825 -11.1598 15.0048
v  8.9696 -10.8424 15.1415
v  10.9426 -8.9761 15.6953
v  11.6304 -8.9777 15.6509
v  13.8643 -11.1385 14.5104
v  14.5654 -11.1169 14.4315
v  8.3653 -13.7222 13.6036
v  8.3562 -13.3955 13.8340
v  7.6427 -13.3620 13.9125
v  7.6452 -13.6849 13.6854
v  7.6981 -17.5532 9.9344
v  7.5388 -17.8396 9.6122
v  8.2673 -18.0422 9.4984
v  8.4412 -17.7390 9.8087
v  22.8877 -13.8290 9.8444
v  23.1377 -14.2208 8.5495
v  23.6909 -14.1148 8.5273
v  23.1961 -14.2820 8.2087
v  23.7404 -14.1716 8.1906
v  15.2040 -18.0410 7.0948
v  14.8327 -18.3413 6.9798
v  13.8930 -11.4442 14.3442
v  14.5962 -11.4181 14.2625
v  15.0792 -15.8537 10.3764
v  14.3530 -16.0591 10.4190
v  19.6130 -11.8797 13.1024
v  20.2982 -11.8227 13.0262
v  20.2568 -11.5860 13.2281
v  19.5702 -11.6359 13.3034
v  22.2891 -13.9345 9.8803
v  14.6231 -16.3007 10.0070
v  15.3176 -16.0786 9.9786
v  22.8277 -13.6982 10.1436
v  22.2205 -13.7975 10.1829
v  27.5637 3.8255 -0.5827
v  27.5637 3.6168 -0.6185
v  27.5608 3.7557 -0.9170
v  27.5608 3.9685 -0.8761
v  27.5637 9.9514 4.5950
v  27.5637 9.4895 3.4769
v  27.5608 9.8987 3.3337
v  27.5608 10.0359 3.6156
v  27.5637 9.6208 3.7500
v  27.5637 10.0395 4.8827
v  27.5655 9.3417 5.0395
v  27.5655 9.2611 4.7666
v  27.5384 0.9354 16.5813
v  27.5633 2.0623 15.7433
v  27.5653 1.9036 15.2370
v  27.5653 2.1978 15.1651
v  27.5633 2.3718 15.6670
v  27.5416 0.7220 -1.5328
v  27.5416 0.9356 -1.5211
v  27.5667 -9.6524 8.2202
v  27.5667 -9.6426 8.4509
v  27.5667 -10.4308 8.4788
v  27.5667 -10.4460 8.2322
v  27.5667 -9.5701 9.1314
v  27.5667 -9.6011 8.9071
v  27.5655 3.5998 -0.1135
v  27.5634 9.7649 10.3220
v  27.5634 9.6512 10.5894
v  27.5654 9.0922 10.2019
v  27.5667 6.8686 8.9536
v  27.5667 7.6687 9.0066
v  27.5667 7.6190 9.2391
v  27.5667 6.8270 9.1720
v  27.5667 -1.1200 1.4575
v  27.5636 -2.8206 -1.0250
v  27.5636 -2.5970 -1.0251
v  27.5605 -2.8709 -1.3582
v  27.5605 -2.6402 -1.3592
v  27.5409 -9.1118 14.9693
v  27.5495 -9.0926 14.9504
v  27.5420 -11.1655 13.4366
v  27.5637 -10.6292 13.1197
v  27.5410 -9.3952 14.8025
v  27.5496 -9.3753 14.7841
v  27.5667 -2.5431 13.6658
v  27.5667 -2.6257 14.2678
v  27.5667 -1.5684 13.7040
v  27.5385 -0.3823 16.7189
v  27.5479 -0.3852 16.6954
v  27.5384 0.6056 16.6265
v  27.5479 -0.0571 16.6718
v  27.5385 -0.0534 16.6952
v  27.5634 8.5586 12.3063
v  27.5601 8.9020 12.4470
v  27.5634 8.7445 12.0809
v  27.5667 6.0478 11.3604
v  27.5601 9.1006 12.2130
v  27.5474 -13.5053 5.8439
v  27.5474 -13.4316 5.5435
v  27.5538 -13.3995 5.5487
v  27.5538 -13.4730 5.8483
v  27.5474 -13.5669 6.1445
v  27.5412 -10.1293 0.4356
v  27.5497 -10.1062 0.4540
v  27.5499 -10.3394 0.6311
v  27.5415 -10.3631 0.6132
v  27.5407 -3.8616 -1.6075
v  27.5408 -3.6252 -1.6203
v  27.5635 -6.2993 -0.6212
v  27.5635 -6.4994 -0.5728
v  27.5603 -6.6402 -0.8516
v  27.5603 -6.4352 -0.9048
v  27.5635 -5.4716 -0.7978
v  27.5604 -5.5897 -1.0996
v  27.5604 -5.3724 -1.1419
v  27.5635 -5.2587 -0.8359
v  27.5667 -5.3977 1.4391
v  27.5667 -5.5904 0.9388
v  27.5667 -9.3861 9.9910
v  27.5667 -10.1035 10.1136
v  27.5637 -10.8114 12.9319
v  27.5655 -10.3419 12.6836
v  27.5655 -10.1785 12.8549
v  27.5421 -11.3685 13.2306
v  27.5667 -2.7855 13.6455
v  27.5667 -2.3678 11.3368
v  27.5667 -2.1501 11.3459
v  27.5667 -1.5513 13.2358
v  27.5667 -1.3165 13.2336
v  27.5667 -1.3239 13.7023
v  27.5667 2.1023 11.8967
v  27.5667 1.8738 11.9459
v  27.5667 1.8688 11.7183
v  27.5667 2.0986 11.6725
v  27.5667 -5.0773 11.9313
v  27.5667 -5.0943 12.1566
v  27.5667 -4.1992 12.1003
v  27.5667 -4.2193 12.3377
v  27.5667 -4.4393 12.2965
v  27.5667 -4.4196 12.0616
v  27.5667 -5.2954 11.8836
v  27.5667 -5.3108 12.1052
v  27.5667 -5.7957 9.2501
v  27.5667 -6.0493 9.2280
v  27.5667 -4.8307 9.3421
v  27.5667 -4.8562 9.5485
v  27.5667 -4.5992 9.3640
v  27.5667 -4.6256 9.5712
v  27.5667 -2.3539 11.1017
v  27.5667 -2.1378 11.1103
v  27.5667 1.1372 10.2660
v  27.5667 0.9067 10.2882
v  27.5667 0.8979 10.0717
v  27.5667 1.1288 10.0510
v  27.5667 -6.0322 9.0266
v  27.5667 -5.7759 9.0484
v  27.5667 -2.8694 7.9114
v  27.5667 -2.8959 8.1003
v  27.5667 -3.0901 8.0875
v  27.5667 -3.0608 7.8991
v  27.5667 -1.4046 8.7361
v  27.5667 -1.4126 8.9362
v  27.5667 -1.2096 8.7350
v  27.5667 -1.2157 8.9349
v  27.5667 1.0635 8.6212
v  27.5667 1.0513 8.4264
v  27.5667 1.2758 8.4078
v  27.5667 1.2899 8.6025
v  27.5667 4.0906 7.5148
v  27.5667 4.0985 7.7134
v  27.5667 -6.5721 6.7763
v  27.5667 -6.2897 6.8118
v  27.5667 -6.5350 6.5809
v  27.5667 -6.2547 6.6179
v  27.5667 -2.7366 6.4310
v  27.5667 -3.0326 7.7127
v  27.5667 -2.8439 7.7246
v  27.5667 -2.5493 6.4440
v  27.5667 -0.6183 6.4824
v  27.5667 -0.6210 6.6636
v  27.5667 -0.7950 6.6674
v  27.5667 -0.7909 6.4856
v  27.5667 0.9349 7.1121
v  27.5667 0.9531 7.2947
v  27.5667 1.1576 7.0921
v  27.5667 1.1754 7.2751
v  27.5667 -6.2581 5.2123
v  27.5667 -6.2117 5.0194
v  27.5667 -5.1203 4.6254
v  27.5667 -5.1560 4.8144
v  27.5667 -4.8952 4.6618
v  27.5667 -4.9268 4.8516
v  27.5667 -2.7304 6.2441
v  27.5667 -2.5426 6.2573
v  27.5667 -0.5621 4.9736
v  27.5667 -0.3881 4.9730
v  27.5667 0.1111 5.7245
v  27.5667 -0.0694 5.7321
v  27.5667 -0.0602 5.5430
v  27.5667 0.1203 5.5359
v  27.5667 2.7325 5.4047
v  27.5667 2.7604 5.5871
v  27.5667 2.5092 5.6287
v  27.5667 2.4862 5.4461
v  27.5667 -4.1511 3.9877
v  27.5667 -4.3525 3.9629
v  27.5667 -4.1766 4.1782
v  27.5667 -4.3808 4.1523
v  27.5667 -3.2823 3.3056
v  27.5667 -3.4683 3.2896
v  27.5667 -2.5528 3.3647
v  27.5667 -2.5696 3.5588
v  27.5667 -2.3768 3.3756
v  27.5667 -2.3925 3.5699
v  27.5667 -0.5562 4.7810
v  27.5667 -0.3825 4.7805
v  27.5667 2.4346 3.9911
v  27.5667 2.2278 4.0240
v  27.5667 2.1857 3.8536
v  27.5667 2.3878 3.8226
v  27.5667 -3.4426 3.0999
v  27.5667 -3.2589 3.1142
v  27.5667 -1.1333 1.8944
v  27.5667 -1.2938 1.8895
v  27.5667 -1.2863 1.4526
v  27.5667 0.0956 2.6912
v  27.5667 0.1016 2.8838
v  27.5667 0.2514 2.6977
v  27.5667 0.2598 2.8894
v  27.5667 2.0508 2.6680
v  27.5667 2.0185 2.4902
v  27.5667 2.1930 2.4760
v  27.5667 2.2281 2.6502
v  27.5667 -9.4405 9.7826
v  27.5667 -8.9941 9.0919
v  27.5667 -7.9389 9.0957
v  27.5667 -7.9263 9.2987
v  27.5667 -7.6575 9.1112
v  27.5667 -7.6495 9.3133
v  27.5667 -9.0179 8.8771
v  27.5667 -6.5196 5.1637
v  27.5667 -6.4685 4.9699
v  27.5667 -6.7033 3.5157
v  27.5667 -6.9263 3.4526
v  27.5667 -6.7907 3.6874
v  27.5667 -7.0218 3.6230
v  27.5667 -5.5676 1.4491
v  27.5667 5.5938 11.2484
v  27.5667 5.9609 11.5202
v  27.5667 5.5288 11.4042
v  27.5667 4.3781 7.4776
v  27.5667 4.3853 7.6776
v  27.5667 5.2646 7.3617
v  27.5667 5.5686 7.3222
v  27.5667 5.2549 7.1575
v  27.5667 5.5593 7.1161
v  27.5667 4.2001 3.5809
v  27.5667 4.4369 3.5060
v  27.5667 4.5340 3.6673
v  27.5667 4.2907 3.7422
v  27.5667 3.8326 2.9760
v  27.5667 3.6246 3.0394
v  27.5667 3.7440 2.8340
v  27.5667 3.5415 2.8953
v  27.5263 0.9405 16.5991
v  27.5264 0.6100 16.6445
v  27.3126 8.0469 13.6940
v  27.3131 8.3014 13.4879
v  27.3273 11.1999 8.1213
v  27.3282 11.2291 7.8164
v  27.3502 7.9065 0.4195
v  27.3503 7.6685 0.2567
v  27.5309 0.7272 -1.5509
v  27.5309 0.9412 -1.5392
v  27.5296 -3.8657 -1.6255
v  27.5297 -3.6288 -1.6383
v  27.3269 -8.9731 -0.3056
v  27.3279 -9.2116 -0.1833
v  27.5392 -13.5307 5.8404
v  27.5392 -13.5925 6.1417
v  27.5314 -11.1841 13.4484
v  27.5316 -11.3876 13.2421
v  27.5667 -2.8824 14.2450
v  27.5654 8.9898 10.4564
v  27.5655 3.3977 -0.1409
v  27.5667 -5.7662 0.9591
v  27.5667 -10.1712 9.8939

f 1 2 3 4
f 7 8 9 10
f 11 12 13 14
f 15 16 17 18
f 22 24 25 23
f 21 26 27 28
f 19 31 32 20
f 33 34 35 36
f 5 37 38 6
f 29 30 39 40
f 41 42 43 44
f 48 49 50 51
f 52 54 55 53
f 56 57 58 59
f 63 64 65 66
f 69 71 72 70
f 76 77 78 79
f 82 83 84 85
f 86 87 88 89
f 92 93 94 95
f 60 61 96 91
f 98 99 100 101
f 102 106 107 103
f 108 109 110 111
f 104 112 113 105
f 74 116 117 75
f 73 90 119 118
f 120 121 122 123
f 124 126 127 125
f 128 129 130 131
f 136 137 138 139
f 140 142 143 141
f 144 145 147 146
f 114 148 149 115
f 151 152 153 154
f 156 157 158 159
f 160 162 163 161
f 150 155 168 169
f 170 171 172 173
f 174 175 176 177
f 166 167 178 179
f 164 165 180 181
f 182 183 184 185
f 186 187 188 189
f 190 193 195 194
f 191 196 197 192
f 198 199 200 201
f 203 206 207 204
f 209 211 212 210
f 205 215 216 217
f 80 220 221 81
f 222 223 224 225
f 218 219 228 227
f 202 208 229 226
f 213 230 231 214
f 232 233 236 237
f 240 241 242 243
f 245 246 247 248
f 251 252 253 254
f 262 263 264 265
f 267 268 269 270
f 250 275 276 277
f 278 279 280 281
f 273 274 284 283
f 285 287 288 286
f 244 249 290 289
f 255 292 293 256
f 295 296 297 298
f 271 272 301 291
f 302 303 304 305
f 307 309 310 308
f 311 313 314 312
f 315 316 317 318
f 321 322 323 324
f 238 326 327 239
f 330 331 332 333
f 299 300 337 336
f 294 335 340 306
f 344 346 347 345
f 338 339 349 348
f 334 342 352 341
f 260 261 353 343
f 350 354 355 351
f 358 359 360 361
f 363 365 366 364
f 325 362 367 356
f 368 369 370 371
f 372 373 374 375
f 258 259 376 377
f 257 266 381 378
f 382 383 384 385
f 386 387 390 391
f 392 394 395 393
f 328 357 396 329
f 397 398 399 400
f 401 403 404 402
f 407 408 410 409
f 413 415 416 414
f 419 420 421 422
f 426 427 428 429
f 433 435 436 434
f 431 437 438 432
f 439 441 442 443
f 411 412 445 444
f 417 448 449 418
f 450 451 452 453
f 454 455 456 457
f 458 459 460 461
f 464 466 467 465
f 472 473 474 475
f 405 477 478 406
f 479 483 484 480
f 488 490 491 489
f 492 494 495 493
f 498 499 500 501
f 502 503 504 505
f 508 510 511 509
f 496 512 513 497
f 506 516 517 507
f 423 424 520 519
f 514 521 522 515
f 481 482 523 524
f 425 525 526 430
f 527 528 529 530
f 462 470 533 532
f 535 536 537 538
f 468 541 542 469
f 543 545 546 544
f 548 550 551 549
f 471 534 554 476
f 552 557 558 553
f 559 560 561 562
f 485 486 564 563
f 539 547 565 540
f 566 567 568 569
f 570 571 572 573
f 574 575 576 577
f 578 580 581 579
f 439 584 585 440
f 586 587 588 589
f 446 447 591 590
f 487 592 593 518
f 594 596 597 595
f 598 600 601 599
f 603 605 606 604
f 611 612 613 614
f 617 618 619 620
f 623 624 625 626
f 632 634 635 633
f 629 638 639 640
f 642 643 644 645
f 648 649 650 651
f 652 654 655 653
f 615 616 656 657
f 660 661 662 663
f 664 665 666 667
f 670 672 673 671
f 658 674 675 659
f 668 677 678 669
f 679 681 682 680
f 609 610 684 683
f 685 689 690 686
f 692 693 694 695
f 699 700 701 702
f 703 705 706 704
f 631 641 707 676
f 642 708 710 646
f 711 712 713 714
f 627 628 717 718
f 636 709 719 637
f 720 722 723 721
f 724 725 726 727
f 715 716 730 729
f 602 691 732 696
f 735 736 737 738
f 630 647 739 740
f 741 743 744 742
f 747 748 749 750
f 697 751 752 698
f 755 756 757 758
f 728 759 760 731
f 745 761 762 746
f 763 764 765 766
f 767 768 769 770
f 753 754 771 772
f 773 774 775 776
f 777 778 779 780
f 785 786 787 788
f 46 47 790 789
f 234 282 791 235
f 796 797 798 799
f 800 801 802 803
f 805 806 807 808
f 582 583 809 810
f 813 814 815 816
f 820 821 822 823
f 824 826 827 825
f 828 830 831 829
f 833 834 835 836
f 837 839 840 838
f 278 281 842 841
f 832 844 845 843
f 846 847 848 849
f 850 851 852 853
f 67 68 855 854
f 856 857 858 859
f 860 861 862 863
f 864 865 866 867
f 869 870 871 872
f 804 873 874 868
f 875 876 877 878
f 880 882 883 884
f 886 888 889 887
f 62 890 891 97
f 892 893 894 895
f 896 898 899 897
f 902 904 905 903
f 879 908 909 885
f 910 911 912 913
f 914 915 916 917
f 925 927 928 926
f 792 793 932 933
f 934 936 937 935
f 938 942 943 939
f 906 907 945 944
f 783 948 949 784
f 950 951 952 953
f 955 956 957 958
f 960 962 963 961
f 794 795 966 967
f 968 969 970 971
f 621 622 973 972
f 818 819 976 977
f 817 881 979 978
f 980 981 982 983
f 984 985 986 987
f 989 990 991 992
f 994 995 996 997
f 1002 1003 1004 1005
f 1008 1010 1011 1009
f 1006 1007 1012 1013
f 1016 1017 1018 1019
f 1025 1026 1027 1028
f 1029 1030 1031 1032
f 1020 1021 1035 1034
f 1036 1037 1038 1039
f 1014 1015 1040 1041
f 1042 1046 1047 1043
f 1044 1045 1048 1049
f 1023 1024 1051 1052
f 1054 1057 1058 1055
f 1059 1060 1061 1062
f 1066 1068 1069 1067
f 1022 1033 1070 1053
f 1073 1074 1075 1076
f 1077 1078 1079 1080
f 1081 1082 1086 1085
f 1087 1088 1089 1090
f 998 1091 1092 1001
f 1095 1096 1097 1098
f 930 931 1100 1099
f 1101 1102 1105 1106
f 1107 1108 1109 1110
f 1113 1114 1115 1116
f 1118 1119 1120 1121
f 954 959 1124 1123
f 1125 1126 1127 1128
f 1129 1130 1131 1132
f 1133 1135 1136 1134
f 1083 1139 1140 1084
f 1141 1145 1146 1142
f 1147 1149 1150 1148
f 1093 1094 1152 1151
f 929 1153 1154 1155
f 1103 1158 1159 1104
f 1160 1161 1162 1163
f 1111 1112 1165 1164
f 1117 1122 1167 1166
f 1168 1169 1170 1171
f 1172 1173 1174 1175
f 1176 1177 1178 1179
f 1180 1182 1183 1181
f 974 1184 1185 975
f 1188 1189 1190 1191
f 1002 1192 1193 1003
f 900 901 1194 1195
f 1196 1198 1199 1197
f 1200 1202 1203 1201
f 1204 1206 1207 1205
f 1208 1209 1210 1211
f 1212 1213 1214 1215
f 1216 1217 1218 1219
f 1186 1220 1221 1187
f 1222 1223 1224 1225
f 1222 1227 1228 1226
f 964 965 1230 1229
f 1231 1232 1233 1234
f 811 812 1235 1236
f 1237 1238 1239 1240
f 923 924 1242 1241
f 946 947 1245 1244
f 940 1243 1246 941
f 1247 1248 1250 1249
f 1251 1253 1254 1252
f 999 1255 1256 1000
f 1259 1260 1261 1262
f 1257 1263 1264 1258
f 1265 1266 1267 1268
f 1063 1065 1269 1270
f 1063 1271 1272 1064
f 1273 1274 1275 1276
f 1277 1279 1280 1278
f 1281 1282 1284 1283
f 45 781 1285 1286
f 1288 1289 1290 1291
f 1292 1293 1294 1295
f 1143 1144 1299 1298
f 1300 1301 1302 1303
f 1137 1304 1305 1138
f 1308 1309 1312 1313
f 1310 1311 1314 1315
f 1316 1317 1318 1319
f 1296 1320 1321 1297
f 1324 1325 1326 1327
f 1328 1329 1331 1330
f 1334 1335 1336 1337
f 1306 1340 1341 1307
f 1342 1344 1345 1343
f 1338 1339 1347 1346
f 1349 1350 1351 1352
f 1354 1355 1356 1357
f 1358 1359 1360 1361
f 1362 1364 1365 1363
f 1368 1369 1370 1371
f 1366 1376 1377 1367
f 1378 1379 1380 1381
f 1372 1373 1382 1383
f 1349 1352 1385 1384
f 1374 1386 1387 1375
f 1388 1389 1390 1391
f 918 919 1396 1395
f 1392 1397 1400 1393
f 1398 1403 1404 1399
f 1406 1408 1410 1407
f 1405 1409 1414 1413
f 1156 1415 1416 1157
f 921 1417 1418 922
f 1420 1421 1422 1423
f 1424 1426 1427 1425
f 920 1394 1428 1419
f 1429 1431 1432 1430
f 1433 1434 1435 1436
f 607 608 1437 1438
f 687 1439 1440 688
f 1441 1442 1443 1444
f 1445 1446 1447 1448
f 1450 1452 1453 1451
f 733 734 1454 1449
f 1456 1457 1458 1459
f 1460 1462 1463 1461
f 1322 1323 1467 1466
f 1334 1455 1470 1335
f 1468 1471 1472 1469
f 1473 1474 1475 1476
f 988 993 1478 1477
f 1480 1481 1482 1483
f 1464 1485 1486 1465
f 1489 1490 1491 1492
f 1479 1484 1493 1494
f 1487 1488 1496 1495
f 1497 1498 1499 1500
f 1501 1502 1503 1504
f 1506 1508 1509 1507
f 463 531 1510 1505
f 555 1511 1512 556
f 1513 1515 1516 1514
f 132 133 1518 1517
f 134 1521 1522 135
f 1519 1523 1524 1520
f 1527 1528 1529 1530
f 1525 1526 1532 1531
f 319 320 1535 1536
f 1533 1537 1538 1534
f 1539 1540 1541 1542
f 379 380 1543 1544
f 388 1545 1546 389
f 1547 1548 1549 1550
f 1551 1552 1553 1554
f 1556 1558 1559 1557
f 1050 1056 1560 1555
f 1071 1561 1562 1072
f 1563 1565 1566 1564
f 1567 1569 1570 1568
f 1573 1574 1575 1576
f 1332 1577 1578 1333
f 1571 1572 1581 1582
f 1583 1585 1586 1584
f 1589 1590 1591 1592
f 1587 1593 1594 1588
f 1595 1596 1597 1598
f 1601 1602 1603 1604
f 1599 1606 1607 1600
f 1610 1611 1612 1613
f 1614 1615 1616 1617
f 1601 1605 1619 1618
f 1622 1623 1624 1625
f 1626 1628 1629 1627
f 1630 1631 1632 1633
f 1636 1638 1639 1637
f 1640 1641 1642 1643
f 1644 1647 1648 1645
f 1649 1650 1651 1652
f 1653 1655 1656 1654
f 1608 1657 1658 1609
f 1620 1659 1660 1621
f 1663 1664 1667 1668
f 1665 1666 1669 1670
f 1579 1580 1671 1672
f 1634 1673 1674 1635
f 1675 1676 1677 1678
f 1661 1662 1680 1679
f 1681 1683 1684 1682
f 1685 1686 1687 1688
f 1691 1693 1694 1692
f 1695 1697 1698 1696
f 1348 1699 1700 1353
f 1703 1704 1705 1706
f 1707 1708 1709 1710
f 1712 1714 1715 1713
f 1689 1716 1717 1690
f 1701 1718 1719 1702
f 1722 1723 1724 1725
f 1720 1721 1727 1728
f 1711 1729 1730 1726
f 1731 1732 1733 1734
f 1736 1737 1738 1739
f 1735 1740 1741 1742
f 1744 1745 1746 1747
f 1750 1751 1752 1753
f 1760 1761 1762 1763
f 1765 1767 1768 1766
f 1769 1773 1774 1770
f 1778 1779 1781 1782
f 1783 1785 1787 1784
f 1788 1789 1790 1791
f 1793 1794 1795 1796
f 1799 1800 1801 1802
f 1803 1804 1805 1806
f 1772 1811 1812 1813
f 1777 1818 1819 1820
f 1821 1822 1823 1824
f 1827 1828 1829 1830
f 1825 1826 1832 1831
f 1835 1837 1838 1836
f 1816 1839 1840 1817
f 1841 1842 1843 1844
f 1833 1834 1845 1846
f 1847 1848 1849 1850
f 1851 1853 1854 1852
f 1855 1856 1857 1858
f 1861 1863 1864 1862
f 1847 1850 1866 1867
f 1869 1870 1871 1872
f 1873 1875 1876 1874
f 1879 1881 1882 1880
f 1865 1883 1884 1868
f 1887 1888 1889 1890
f 1891 1892 1893 1894
f 1895 1897 1898 1896
f 1901 1903 1904 1902
f 1885 1905 1906 1886
f 1907 1908 1909 1910
f 1899 1900 1911 1912
f 1764 1913 1914 1915
f 1916 1918 1919 1917
f 1920 1921 1922 1923
f 1926 1928 1929 1927
f 1754 1755 1930 1925
f 1877 1931 1932 1878
f 1933 1935 1936 1934
f 1786 1939 1940 1938
f 1859 1941 1942 1860
f 1943 1945 1946 1944
f 1947 1948 1949 1950
f 1951 1952 1954 1953
f 1743 1955 1956 1780
f 1401 1402 1957 1958
f 1411 1959 1960 1412
f 782 1961 1962 1287
f 1748 1963 1964 1749
f 1797 1965 1966 1798
f 1644 1646 1967 1968
f 1788 1792 1970 1969
f 1771 1971 1972 1814
f 1775 1776 1973 1815
f 1757 1758 1974 1759
f 1731 1756 1975 1732
f 1807 1937 1976 1808
f 1809 1810 1977 1924
